<svg width="24" height="25" viewBox="0 0 24 25" fill="none" xmlns="http://www.w3.org/2000/svg">
<g clip-path="url(#clip0_284_394)">
<path d="M17.2165 1.20146C15.6389 0.438617 13.869 0.0107422 11.9991 0.0107422C10.1293 0.0107422 8.35939 0.438617 6.78177 1.20146L5.73828 12.0107L6.78177 22.82C8.35939 23.5829 10.1293 24.0107 11.9991 24.0107C13.869 24.0107 15.6389 23.5829 17.2165 22.82L18.26 12.0107L17.2165 1.20146Z" fill="#D80027"/>
<path d="M12 7.83691L13.0359 11.0253H16.3888L13.6764 12.9961L14.7124 16.1847L12 14.214L9.28753 16.1847L10.3237 12.9961L7.61133 11.0253H10.964L12 7.83691Z" fill="#FFDA44"/>
<path d="M6.78262 1.20166C2.76872 3.14257 0 7.25299 0 12.0105C0 16.7681 2.76872 20.8785 6.78262 22.8194V1.20166Z" fill="#496E2D"/>
<path d="M17.2168 1.20166V22.8194C21.2307 20.8785 23.9994 16.768 23.9994 12.0105C23.9994 7.25304 21.2307 3.14257 17.2168 1.20166Z" fill="#FFDA44"/>
</g>
<defs>
<clipPath id="clip0_284_394">
<rect width="24" height="24" fill="white" transform="translate(0 0.0107422)"/>
</clipPath>
</defs>
</svg>
