<svg width="24" height="24" viewBox="0 0 24 24" fill="none" xmlns="http://www.w3.org/2000/svg">
<g clip-path="url(#clip0_284_2000)">
<path d="M12 24.0049C18.6274 24.0049 24 18.6323 24 12.0049C24 5.37747 18.6274 0.00488281 12 0.00488281C5.37258 0.00488281 0 5.37747 0 12.0049C0 18.6323 5.37258 24.0049 12 24.0049Z" fill="#F0F0F0"/>
<path d="M2.4813 4.69922C1.53869 5.92561 0.827922 7.33912 0.414062 8.8747H6.65678L2.4813 4.69922Z" fill="#0052B4"/>
<path d="M23.5864 8.87466C23.1725 7.33912 22.4617 5.92561 21.5191 4.69922L17.3438 8.87466H23.5864Z" fill="#0052B4"/>
<path d="M0.414062 15.1357C0.827969 16.6713 1.53873 18.0848 2.4813 19.3111L6.65664 15.1357H0.414062Z" fill="#0052B4"/>
<path d="M19.3063 2.48574C18.0799 1.54313 16.6664 0.832363 15.1309 0.418457V6.66113L19.3063 2.48574Z" fill="#0052B4"/>
<path d="M4.69531 21.5245C5.9217 22.4671 7.33522 23.1778 8.87075 23.5917V17.3491L4.69531 21.5245Z" fill="#0052B4"/>
<path d="M8.8707 0.418457C7.33517 0.832363 5.92166 1.54313 4.69531 2.48569L8.8707 6.66108V0.418457Z" fill="#0052B4"/>
<path d="M15.1309 23.5917C16.6664 23.1778 18.0799 22.4671 19.3063 21.5245L15.1309 17.3491V23.5917Z" fill="#0052B4"/>
<path d="M17.3438 15.1357L21.5191 19.3112C22.4617 18.0848 23.1725 16.6713 23.5864 15.1357H17.3438Z" fill="#0052B4"/>
<path d="M23.8984 10.4397H13.5653H13.5652V0.106461C13.0529 0.0397578 12.5305 0.00488281 12 0.00488281C11.4694 0.00488281 10.9471 0.0397578 10.4348 0.106461V10.4396V10.4396H0.101578C0.034875 10.952 0 11.4744 0 12.0049C0 12.5355 0.034875 13.0577 0.101578 13.5701H10.4347H10.4348V23.9033C10.9471 23.97 11.4694 24.0049 12 24.0049C12.5305 24.0049 13.0529 23.9701 13.5652 23.9033V13.5702V13.5701H23.8984C23.9651 13.0577 24 12.5355 24 12.0049C24 11.4744 23.9651 10.952 23.8984 10.4397V10.4397Z" fill="#D80027"/>
<path d="M15.1309 15.1353L20.4857 20.4901C20.732 20.2439 20.9669 19.9865 21.191 19.7197L16.6066 15.1353H15.1309V15.1353Z" fill="#D80027"/>
<path d="M8.87048 15.1353H8.87039L3.51562 20.49C3.76181 20.7363 4.0192 20.9712 4.28602 21.1954L8.87048 16.6108V15.1353Z" fill="#D80027"/>
<path d="M8.86878 8.87448V8.87439L3.51397 3.51953C3.26769 3.76572 3.03275 4.02311 2.80859 4.28992L7.39311 8.87444H8.86878V8.87448Z" fill="#D80027"/>
<path d="M15.1309 8.87469L20.4857 3.51978C20.2395 3.2735 19.9821 3.03856 19.7153 2.81445L15.1309 7.39897V8.87469Z" fill="#D80027"/>
</g>
<defs>
<clipPath id="clip0_284_2000">
<rect width="24" height="24" fill="white" transform="translate(0 0.00488281)"/>
</clipPath>
</defs>
</svg>
