<svg width="24" height="24" viewBox="0 0 24 24" fill="none" xmlns="http://www.w3.org/2000/svg">
<g clip-path="url(#clip0_284_803)">
<path d="M0 12.0028C0 13.4706 0.264047 14.8767 0.746391 16.1767L12 16.6984L23.2536 16.1767C23.736 14.8767 24 13.4706 24 12.0028C24 10.5349 23.736 9.12888 23.2536 7.82889L12 7.30713L0.746391 7.82885C0.264047 9.12888 0 10.5349 0 12.0028H0Z" fill="#FFDA44"/>
<path d="M11.9997 0.00292969C6.84012 0.00292969 2.44161 3.25943 0.746094 7.82904H23.2534C21.5578 3.25943 17.1593 0.00292969 11.9997 0.00292969V0.00292969Z" fill="#D80027"/>
<path d="M23.2533 16.1768H0.746094C2.44161 20.7463 6.84012 24.0029 11.9997 24.0029C17.1593 24.0029 21.5578 20.7463 23.2533 16.1768Z" fill="#496E2D"/>
<path d="M12 7.8291L13.0359 11.0175H16.3888L13.6764 12.9883L14.7124 16.1769L12 14.2063L9.28753 16.1769L10.3237 12.9883L7.61133 11.0175H10.964L12 7.8291Z" fill="black"/>
</g>
<defs>
<clipPath id="clip0_284_803">
<rect width="24" height="24" fill="white" transform="translate(0 0.00292969)"/>
</clipPath>
</defs>
</svg>