<svg width="24" height="24" viewBox="0 0 24 24" fill="none" xmlns="http://www.w3.org/2000/svg">
<g clip-path="url(#clip0_284_967)">
<path d="M12 24.0049C18.6274 24.0049 24 18.6323 24 12.0049C24 5.37747 18.6274 0.00488281 12 0.00488281C5.37258 0.00488281 0 5.37747 0 12.0049C0 18.6323 5.37258 24.0049 12 24.0049Z" fill="#F0F0F0"/>
<path d="M16.5193 9.39629H13.5069L12.0008 6.7876L10.4948 9.39629H7.48242L8.9887 12.005L7.48242 14.6137H10.4948L12.0008 17.2223L13.5069 14.6137H16.5193L15.013 12.005L16.5193 9.39629ZM13.8512 12.005L12.9261 13.6075H11.0757L10.1505 12.005L11.0757 10.4024H12.9261L13.8512 12.005ZM12.0008 8.7998L12.3452 9.39624H11.6566L12.0008 8.7998ZM9.22519 10.4024H9.91388L9.56953 10.9988L9.22519 10.4024ZM9.22519 13.6075L9.56958 13.0111L9.91392 13.6075H9.22519ZM12.0008 15.2101L11.6565 14.6137H12.3452L12.0008 15.2101ZM14.7765 13.6075H14.0878L14.4322 13.0111L14.7765 13.6075ZM14.0878 10.4024H14.7765L14.4322 10.9988L14.0878 10.4024Z" fill="#0052B4"/>
<path d="M19.4703 2.61377H4.53058C3.43544 3.48602 2.49625 4.54549 1.76172 5.74422H22.2392C21.5046 4.54553 20.5654 3.48602 19.4703 2.61377V2.61377Z" fill="#0052B4"/>
<path d="M4.53058 21.3966H19.4702C20.5654 20.5243 21.5046 19.4648 22.2391 18.2661H1.76172C2.4963 19.4648 3.43548 20.5243 4.53058 21.3966V21.3966Z" fill="#0052B4"/>
</g>
<defs>
<clipPath id="clip0_284_967">
<rect width="24" height="24" fill="white" transform="translate(0 0.00488281)"/>
</clipPath>
</defs>
</svg>