<svg width="24" height="24" viewBox="0 0 24 24" fill="none" xmlns="http://www.w3.org/2000/svg">
<g clip-path="url(#clip0_284_973)">
<path d="M12 24.0049C18.6274 24.0049 24 18.6323 24 12.0049C24 5.37747 18.6274 0.00488281 12 0.00488281C5.37258 0.00488281 0 5.37747 0 12.0049C0 18.6323 5.37258 24.0049 12 24.0049Z" fill="#F0F0F0"/>
<path d="M23.9999 12.0051C23.9999 6.8455 20.7434 2.44698 16.1738 0.751465V23.2587C20.7434 21.5632 23.9999 17.1647 23.9999 12.0051V12.0051Z" fill="#D80027"/>
<path d="M0 12.0051C0 17.1647 3.2565 21.5632 7.82611 23.2587V0.751465C3.2565 2.44698 0 6.8455 0 12.0051Z" fill="#6DA544"/>
</g>
<defs>
<clipPath id="clip0_284_973">
<rect width="24" height="24" fill="white" transform="translate(0 0.00488281)"/>
</clipPath>
</defs>
</svg>
