<svg width="24" height="24" viewBox="0 0 24 24" fill="none" xmlns="http://www.w3.org/2000/svg">
<g clip-path="url(#clip0_284_1045)">
<path d="M12 24.0059C18.6274 24.0059 24 18.6333 24 12.0059C24 5.37844 18.6274 0.00585938 12 0.00585938C5.37258 0.00585938 0 5.37844 0 12.0059C0 18.6333 5.37258 24.0059 12 24.0059Z" fill="#D80027"/>
<path d="M17.8681 12.006L15.4702 13.1339L16.7471 15.4564L14.1431 14.9582L13.8133 17.5886L11.9994 15.6541L10.1857 17.5886L9.85578 14.9582L7.25197 15.4563L8.52884 13.1338L6.13086 12.006L8.52884 10.8781L7.25197 8.55554L9.85569 9.05382L10.1858 6.42334L11.9994 8.35792L13.8133 6.42334L14.1431 9.05382L16.7472 8.55554L15.4702 10.8782L17.8681 12.006Z" fill="#FFDA44"/>
<path d="M11.9998 15.6579C14.0169 15.6579 15.652 14.0227 15.652 12.0057C15.652 9.98865 14.0169 8.35352 11.9998 8.35352C9.98279 8.35352 8.34766 9.98865 8.34766 12.0057C8.34766 14.0227 9.98279 15.6579 11.9998 15.6579Z" fill="#D80027"/>
<path d="M10.1746 12.0059C10.0867 12.0059 9.9998 12.0104 9.91406 12.0189C9.9172 12.5247 10.1002 12.9877 10.4025 13.3474C10.5637 12.9135 10.8045 12.5178 11.1081 12.1792C10.8181 12.0676 10.5035 12.0059 10.1746 12.0059Z" fill="#FFDA44"/>
<path d="M11.2988 13.9714C11.5182 14.0498 11.7544 14.0928 12.0008 14.0928C12.2472 14.0928 12.4834 14.0498 12.7027 13.9714C12.5832 13.5021 12.3363 13.0832 12.0008 12.7539C11.6653 13.0831 11.4184 13.5021 11.2988 13.9714Z" fill="#FFDA44"/>
<path d="M13.8079 10.9628C13.447 10.339 12.7731 9.91895 12.0006 9.91895C11.2281 9.91895 10.5542 10.339 10.1934 10.9628C10.8512 10.9661 11.4681 11.145 12.0006 11.4538C12.5332 11.145 13.15 10.9661 13.8079 10.9628Z" fill="#FFDA44"/>
<path d="M12.8926 12.1792C13.1962 12.5177 13.4369 12.9134 13.5982 13.3474C13.9004 12.9877 14.0834 12.5247 14.0866 12.0189C14.0008 12.0103 13.9139 12.0059 13.826 12.0059C13.4972 12.0058 13.1826 12.0676 12.8926 12.1792V12.1792Z" fill="#FFDA44"/>
</g>
<defs>
<clipPath id="clip0_284_1045">
<rect width="24" height="24" fill="white" transform="translate(0 0.00585938)"/>
</clipPath>
</defs>
</svg>
