<svg width="24" height="24" viewBox="0 0 24 24" fill="none" xmlns="http://www.w3.org/2000/svg">
<g clip-path="url(#clip0_284_1724)">
<path d="M12 24.001C18.6274 24.001 24 18.6284 24 12.001C24 5.37356 18.6274 0.000976562 12 0.000976562C5.37258 0.000976562 0 5.37356 0 12.001C0 18.6284 5.37258 24.001 12 24.001Z" fill="#F0F0F0"/>
<path d="M16.174 12.001C16.174 13.0445 14.3052 15.6532 12.0001 15.6532C9.69489 15.6532 7.82617 13.0445 7.82617 12.001C7.82617 9.69582 9.69489 7.82715 12.0001 7.82715C14.3052 7.82715 16.174 9.69582 16.174 12.001Z" fill="#D80027"/>
<path d="M16.174 12.001C16.174 14.3062 14.3052 16.1749 12.0001 16.1749C9.69489 16.1749 7.82617 14.3062 7.82617 12.001" fill="#0052B4"/>
<path d="M16.4238 15.6904L17.5304 14.5838L18.2682 15.3216L17.1616 16.4282L16.4238 15.6904Z" fill="black"/>
<path d="M14.5781 17.5347L15.6847 16.4281L16.4225 17.1658L15.3159 18.2724L14.5781 17.5347Z" fill="black"/>
<path d="M18.6367 17.9033L19.7433 16.7967L20.4811 17.5345L19.3745 18.6411L18.6367 17.9033Z" fill="black"/>
<path d="M16.793 19.748L17.8996 18.6414L18.6373 19.3792L17.5307 20.4858L16.793 19.748Z" fill="black"/>
<path d="M17.5312 16.7969L18.6378 15.6903L19.3756 16.428L18.269 17.5346L17.5312 16.7969Z" fill="black"/>
<path d="M15.6855 18.6416L16.7921 17.535L17.5299 18.2727L16.4233 19.3793L15.6855 18.6416Z" fill="black"/>
<path d="M18.6426 8.31348L15.6916 5.36254L16.4294 4.62479L19.3803 7.57573L18.6426 8.31348Z" fill="black"/>
<path d="M15.6914 7.57617L14.5848 6.46957L15.3225 5.73186L16.4291 6.83846L15.6914 7.57617Z" fill="black"/>
<path d="M17.5352 9.4209L16.4286 8.3143L17.1663 7.57659L18.2729 8.68319L17.5352 9.4209Z" fill="black"/>
<path d="M17.9043 5.3623L16.7977 4.25571L17.5354 3.51796L18.642 4.62456L17.9043 5.3623Z" fill="black"/>
<path d="M19.748 7.20752L18.6414 6.10092L19.3792 5.36318L20.4858 6.46978L19.748 7.20752Z" fill="black"/>
<path d="M4.25391 16.7949L7.20485 19.7459L6.4671 20.4836L3.51616 17.5327L4.25391 16.7949Z" fill="black"/>
<path d="M7.20508 17.5322L8.31168 18.6388L7.57397 19.3765L6.46737 18.2699L7.20508 17.5322Z" fill="black"/>
<path d="M5.36133 15.688L6.46793 16.7946L5.73018 17.5323L4.62359 16.4257L5.36133 15.688Z" fill="black"/>
<path d="M6.4668 14.5811L9.41774 17.532L8.67999 18.2697L5.72905 15.3188L6.4668 14.5811Z" fill="black"/>
<path d="M7.20508 4.25342L4.25414 7.20436L3.51639 6.46662L6.46733 3.51567L7.20508 4.25342Z" fill="black"/>
<path d="M8.31055 5.36035L5.35961 8.31129L4.62186 7.57355L7.5728 4.62261L8.31055 5.36035Z" fill="black"/>
<path d="M9.41992 6.46729L6.46898 9.41823L5.73127 8.68052L8.68221 5.72957L9.41992 6.46729Z" fill="black"/>
</g>
<defs>
<clipPath id="clip0_284_1724">
<rect width="24" height="24" fill="white" transform="translate(0 0.000976562)"/>
</clipPath>
</defs>
</svg>