<svg width="24" height="24" viewBox="0 0 24 24" fill="none" xmlns="http://www.w3.org/2000/svg">
<g clip-path="url(#clip0_284_1071)">
<path d="M0 12.0067C0 13.8766 0.427828 15.6465 1.19072 17.2241L12 17.7459L22.8093 17.2241C23.5722 15.6465 24 13.8766 24 12.0067C24 10.1369 23.5722 8.36697 22.8093 6.78934L12 6.26758L1.19072 6.7893C0.427828 8.36697 0 10.1369 0 12.0067H0Z" fill="#F0F0F0"/>
<path d="M12.0007 24.0067C16.7582 24.0067 20.869 21.2381 22.81 17.2241H1.19141C3.13241 21.2381 7.24316 24.0067 12.0007 24.0067Z" fill="#6DA544"/>
<path d="M12.0007 0.00683594C7.24316 0.00683594 3.13241 2.77551 1.19141 6.78946H22.8099C20.869 2.77551 16.7582 0.00683594 12.0007 0.00683594V0.00683594Z" fill="#0052B4"/>
<path d="M12.7818 11.746V8.87646H11.2166V11.746L9.32617 13.6365C9.87597 14.5365 10.8674 15.1373 11.9993 15.1373C13.1311 15.1373 14.1225 14.5365 14.6724 13.6365L12.7818 11.746Z" fill="black"/>
</g>
<defs>
<clipPath id="clip0_284_1071">
<rect width="24" height="24" fill="white" transform="translate(0 0.00683594)"/>
</clipPath>
</defs>
</svg>