<svg width="24" height="24" viewBox="0 0 24 24" fill="none" xmlns="http://www.w3.org/2000/svg">
<g clip-path="url(#clip0_284_1060)">
<path d="M12 24.0059C18.6274 24.0059 24 18.6333 24 12.0059C24 5.37844 18.6274 0.00585938 12 0.00585938C5.37258 0.00585938 0 5.37844 0 12.0059C0 18.6333 5.37258 24.0059 12 24.0059Z" fill="#F0F0F0"/>
<path d="M12.0007 0.00585938C6.45634 0.00585938 1.79106 3.76622 0.414062 8.87541H23.5873C22.2103 3.76622 17.545 0.00585938 12.0007 0.00585938Z" fill="#A2001D"/>
<path d="M12.0007 24.0058C17.545 24.0058 22.2103 20.2454 23.5873 15.1362H0.414062C1.79106 20.2454 6.45634 24.0058 12.0007 24.0058Z" fill="#A2001D"/>
</g>
<defs>
<clipPath id="clip0_284_1060">
<rect width="24" height="24" fill="white" transform="translate(0 0.00585938)"/>
</clipPath>
</defs>
</svg>