<svg width="24" height="25" viewBox="0 0 24 25" fill="none" xmlns="http://www.w3.org/2000/svg">
<g clip-path="url(#clip0_284_1444)">
<path d="M12 24.0107C18.6274 24.0107 24 18.6382 24 12.0107C24 5.38332 18.6274 0.0107422 12 0.0107422C5.37258 0.0107422 0 5.38332 0 12.0107C0 18.6382 5.37258 24.0107 12 24.0107Z" fill="#F0F0F0"/>
<path d="M0 12.0107C0 18.6381 5.37262 24.0107 12 24.0107C12 19.4472 12 12.0107 12 12.0107C12 12.0107 4.17389 12.0107 0 12.0107Z" fill="#0052B4"/>
<path d="M12 0.0107422C18.6274 0.0107422 24 5.38337 24 12.0107C19.4365 12.0107 12 12.0107 12 12.0107C12 12.0107 12 4.18463 12 0.0107422Z" fill="#D80027"/>
<path d="M7.14313 4.18457L7.92017 6.57604H10.4347L8.40041 8.05401L9.17741 10.4455L7.14313 8.96746L5.10884 10.4455L5.88584 8.05401L3.85156 6.57604H6.36608L7.14313 4.18457Z" fill="#0052B4"/>
<path d="M16.856 13.5762L17.6331 15.9676H20.1476L18.1133 17.4456L18.8903 19.8371L16.856 18.3591L14.8217 19.8371L15.5987 17.4456L13.5645 15.9676H16.079L16.856 13.5762Z" fill="#D80027"/>
</g>
<defs>
<clipPath id="clip0_284_1444">
<rect width="24" height="24" fill="white" transform="translate(0 0.0107422)"/>
</clipPath>
</defs>
</svg>