<svg width="24" height="24" viewBox="0 0 24 24" fill="none" xmlns="http://www.w3.org/2000/svg">
<g clip-path="url(#clip0_309_4497)">
<mask id="mask0_309_4497" style="mask-type:alpha" maskUnits="userSpaceOnUse" x="0" y="0" width="24" height="24">
<circle cx="12" cy="12" r="12" fill="#D9D9D9"/>
</mask>
<g mask="url(#mask0_309_4497)">
<path d="M12 24C18.6274 24 24 18.6274 24 12C24 5.37258 18.6274 0 12 0C5.37258 0 0 5.37258 0 12C0 18.6274 5.37258 24 12 24Z" fill="#0071BC"/>
<path d="M3.51497 3.52019C8.20123 -1.16607 15.7993 -1.16607 20.4855 3.52019C25.1718 8.20645 25.1718 15.8045 20.4855 20.4907C20.1166 20.1218 10.8935 13.1122 10.8935 13.1122L3.51497 3.52019Z" fill="#0071BC"/>
</g>
<g clip-path="url(#clip1_309_4497)">
<path d="M12 24C18.6274 24 24 18.6274 24 12C24 5.37258 18.6274 0 12 0C5.37258 0 0 5.37258 0 12C0 18.6274 5.37258 24 12 24Z" fill="#4158F5"/>
<mask id="mask1_309_4497" style="mask-type:alpha" maskUnits="userSpaceOnUse" x="0" y="0" width="24" height="24">
<path d="M12 24C18.6274 24 24 18.6274 24 12C24 5.37258 18.6274 0 12 0C5.37258 0 0 5.37258 0 12C0 18.6274 5.37258 24 12 24Z" fill="#0071BC"/>
</mask>
<g mask="url(#mask1_309_4497)">
<path d="M24 12L24 13L11 12.3333L24 12Z" fill="#FCFF45"/>
<path d="M21.5254 3L22.2059 3.73278L12.226 12.0902L21.5254 3Z" fill="#FCFF45"/>
<path d="M3 3.71533L3.69888 3.00009L12.5311 12.5623L3 3.71533Z" fill="#FCFF45"/>
<path d="M-1 13L-1 12L12 12.6667L-1 13Z" fill="#FCFF45"/>
<path d="M12 0H13L12.3333 13L12 0Z" fill="#FCFF45"/>
<path d="M-2 20.5C2.68628 25.1862 21.3137 25.1862 26 20.5C23 18.5 19 15.9999 12.4853 11.4998L-2 20.5Z" fill="#E6311C"/>
</g>
</g>
</g>
<defs>
<clipPath id="clip0_309_4497">
<rect width="24" height="24" fill="white"/>
</clipPath>
<clipPath id="clip1_309_4497">
<rect width="24" height="24" fill="white"/>
</clipPath>
</defs>
</svg>
