<svg width="24" height="24" viewBox="0 0 24 24" fill="none" xmlns="http://www.w3.org/2000/svg">
<g clip-path="url(#clip0_284_1625)">
<path d="M12 24.001C18.6274 24.001 24 18.6284 24 12.001C24 5.37356 18.6274 0.000976562 12 0.000976562C5.37258 0.000976562 0 5.37356 0 12.001C0 18.6284 5.37258 24.001 12 24.001Z" fill="#F0F0F0"/>
<path d="M12 0.000976562C5.37262 0.000976562 0 5.3736 0 12.001C0 13.4688 0.264047 14.8749 0.746391 16.1749H23.2537C23.736 14.8749 24 13.4688 24 12.001C24 5.3736 18.6274 0.000976562 12 0.000976562Z" fill="#0052B4"/>
<path d="M11.9997 0.000976562C6.84012 0.000976562 2.44161 3.25748 0.746094 7.82709H23.2534C21.5578 3.25748 17.1593 0.000976562 11.9997 0.000976562V0.000976562Z" fill="#D80027"/>
<path d="M3.10352 6.78369V12.7699C3.10352 16.1751 7.552 17.2185 7.552 17.2185C7.552 17.2185 12.0004 16.1751 12.0004 12.7699V6.78369H3.10352Z" fill="#D80027"/>
<path d="M4.94336 7.82723H10.1608V5.74026L9.1173 6.26198L7.55209 4.69678L5.98684 6.26198L4.94336 5.74026V7.82723Z" fill="#FFDA44"/>
<path d="M10.9565 13.6032L7.56514 10.2119L4.17383 13.6032L5.28059 14.71L7.56514 12.4254L9.84969 14.71L10.9565 13.6032Z" fill="#FFDA44"/>
<path d="M10.9565 10.4357H9.37414C9.46311 10.2822 9.51486 10.1043 9.51486 9.91409C9.51486 9.33771 9.04766 8.87061 8.47137 8.87061C8.07317 8.87061 7.72737 9.09364 7.55145 9.42153C7.37553 9.09368 7.02973 8.87061 6.63153 8.87061C6.05525 8.87061 5.58805 9.33771 5.58805 9.91409C5.58805 10.1043 5.6398 10.2822 5.72877 10.4357H4.17383C4.17383 11.012 4.67581 11.4792 5.25205 11.4792H5.21731C5.21731 12.0555 5.68447 12.5227 6.2608 12.5227C6.2608 13.033 6.62727 13.4569 7.11125 13.5477L6.28906 15.404C6.68309 15.5642 7.11369 15.6531 7.56519 15.6531C8.01669 15.6531 8.44728 15.5642 8.84131 15.404L8.01913 13.5477C8.50311 13.457 8.86958 13.033 8.86958 12.5227C9.44591 12.5227 9.91306 12.0555 9.91306 11.4792H9.87833C10.4545 11.4792 10.9565 11.012 10.9565 10.4357V10.4357Z" fill="#F0F0F0"/>
</g>
<defs>
<clipPath id="clip0_284_1625">
<rect width="24" height="24" fill="white" transform="translate(0 0.000976562)"/>
</clipPath>
</defs>
</svg>
