<svg width="24" height="24" viewBox="0 0 24 24" fill="none" xmlns="http://www.w3.org/2000/svg">
<g clip-path="url(#clip0_284_1688)">
<path d="M12 24.002C18.6274 24.002 24 18.6294 24 12.002C24 5.37454 18.6274 0.00195312 12 0.00195312C5.37258 0.00195312 0 5.37454 0 12.002C0 18.6294 5.37258 24.002 12 24.002Z" fill="#F0F0F0"/>
<path d="M23.2536 7.82821H10.4348V4.69775H4.17389V7.82821H0.746391C0.264047 9.12814 0 10.5343 0 12.0021C0 13.4699 0.264047 14.876 0.746391 16.176L12 17.2195L23.2536 16.176C23.736 14.876 24 13.4699 24 12.0021C24 10.5343 23.736 9.12814 23.2536 7.82821Z" fill="#0052B4"/>
<path d="M11.9997 24.0019C17.1593 24.0019 21.5578 20.7454 23.2533 16.1758H0.746094C2.44161 20.7454 6.84012 24.0019 11.9997 24.0019Z" fill="#D80027"/>
<path d="M4.17383 7.82787V8.87131C4.17383 11.2676 7.30428 12.0018 7.30428 12.0018C7.30428 12.0018 10.4347 11.2676 10.4347 8.87131V7.82787L9.39125 8.87136L7.30428 7.30615L5.21731 8.87136L4.17383 7.82787Z" fill="#F0F0F0"/>
</g>
<defs>
<clipPath id="clip0_284_1688">
<rect width="24" height="24" fill="white" transform="translate(0 0.00195312)"/>
</clipPath>
</defs>
</svg>
