<svg width="24" height="24" viewBox="0 0 24 24" fill="none" xmlns="http://www.w3.org/2000/svg">
<g clip-path="url(#clip0_284_1746)">
<path d="M12 24.002C18.6274 24.002 24 18.6294 24 12.002C24 5.37454 18.6274 0.00195312 12 0.00195312C5.37258 0.00195312 0 5.37454 0 12.002C0 18.6294 5.37258 24.002 12 24.002Z" fill="#F0F0F0"/>
<path d="M23.0644 7.34975C21.2471 3.03298 16.9781 0.00195312 12.0005 0.00195312C8.68673 0.00195312 5.68706 1.34534 3.51562 3.51706L6.52078 7.34975H23.0644Z" fill="black"/>
<path d="M6.55486 16.6108L3.51562 20.487C5.68706 22.6587 8.68673 24.0021 12.0005 24.0021C16.9949 24.0021 21.276 20.9508 23.0829 16.6108H6.55486Z" fill="#496E2D"/>
<path d="M2.60938 8.82812V15.1324H23.5873C23.8565 14.1344 24.0007 13.0852 24.0007 12.002C24.0007 10.9032 23.8527 9.83913 23.576 8.82812H2.60938Z" fill="#A2001D"/>
<path d="M3.51471 3.5166C-1.17157 8.20288 -1.17157 15.8009 3.51471 20.4872C5.45126 18.5507 7.31374 16.6882 12 12.0019L3.51471 3.5166Z" fill="#0052B4"/>
<path d="M3.90889 9.01855L5.3735 11.0624L7.77013 10.3009L6.27898 12.3255L7.74359 14.3694L5.35728 13.5769L3.86609 15.6015L3.8825 13.087L1.49609 12.2944L3.89253 11.533L3.90889 9.01855Z" fill="#FFDA44"/>
</g>
<defs>
<clipPath id="clip0_284_1746">
<rect width="24" height="24" fill="white" transform="translate(0 0.00195312)"/>
</clipPath>
</defs>
</svg>
