<svg width="24" height="24" viewBox="0 0 24 24" fill="none" xmlns="http://www.w3.org/2000/svg">
<g clip-path="url(#clip0_284_2022)">
<path d="M12 24.0049C18.6274 24.0049 24 18.6323 24 12.0049C24 5.37747 18.6274 0.00488281 12 0.00488281C5.37258 0.00488281 0 5.37747 0 12.0049C0 18.6323 5.37258 24.0049 12 24.0049Z" fill="#F0F0F0"/>
<path d="M11.4785 12.005H24.0002C24.0002 10.9219 23.8559 9.87262 23.5868 8.87451H11.4785V12.005Z" fill="#D80027"/>
<path d="M11.4785 5.74422H22.239C21.5044 4.54553 20.5651 3.48602 19.47 2.61377H11.4785V5.74422Z" fill="#D80027"/>
<path d="M12.0011 24.0052C14.8252 24.0052 17.421 23.029 19.4709 21.3965H4.53125C6.58109 23.029 9.17689 24.0052 12.0011 24.0052Z" fill="#D80027"/>
<path d="M1.76195 18.2657H22.2394C22.8291 17.3034 23.2865 16.2515 23.5873 15.1353H0.414062C0.714859 16.2515 1.17222 17.3034 1.76195 18.2657V18.2657Z" fill="#D80027"/>
<path d="M5.55862 1.87885H6.65217L5.63498 2.61784L6.02353 3.81357L5.00639 3.07459L3.98925 3.81357L4.32487 2.78059C3.42928 3.5266 2.64431 4.40063 1.99744 5.37451H2.34783L1.70034 5.8449C1.59947 6.01318 1.50272 6.18413 1.41 6.35762L1.71919 7.30923L1.14234 6.89012C0.998953 7.19391 0.867797 7.50455 0.749906 7.82166L1.09055 8.87016H2.34783L1.33064 9.60915L1.71919 10.8049L0.702047 10.0659L0.0927656 10.5086C0.0317812 10.9988 0 11.4981 0 12.0049H12C12 5.37751 12 4.5962 12 0.00488281C9.62944 0.00488281 7.41961 0.692539 5.55862 1.87885V1.87885ZM6.02353 10.8049L5.00639 10.0659L3.98925 10.8049L4.3778 9.60915L3.36061 8.87016H4.61789L5.00639 7.67443L5.39489 8.87016H6.65217L5.63498 9.60915L6.02353 10.8049ZM5.63498 6.11349L6.02353 7.30923L5.00639 6.57024L3.98925 7.30923L4.3778 6.11349L3.36061 5.37451H4.61789L5.00639 4.17877L5.39489 5.37451H6.65217L5.63498 6.11349ZM10.3279 10.8049L9.31073 10.0659L8.29359 10.8049L8.68214 9.60915L7.66495 8.87016H8.92223L9.31073 7.67443L9.69923 8.87016H10.9565L9.93933 9.60915L10.3279 10.8049ZM9.93933 6.11349L10.3279 7.30923L9.31073 6.57024L8.29359 7.30923L8.68214 6.11349L7.66495 5.37451H8.92223L9.31073 4.17877L9.69923 5.37451H10.9565L9.93933 6.11349ZM9.93933 2.61784L10.3279 3.81357L9.31073 3.07459L8.29359 3.81357L8.68214 2.61784L7.66495 1.87885H8.92223L9.31073 0.683117L9.69923 1.87885H10.9565L9.93933 2.61784Z" fill="#0052B4"/>
</g>
<defs>
<clipPath id="clip0_284_2022">
<rect width="24" height="24" fill="white" transform="translate(0 0.00488281)"/>
</clipPath>
</defs>
</svg>
