<svg width="24" height="24" viewBox="0 0 24 24" fill="none" xmlns="http://www.w3.org/2000/svg">
<g clip-path="url(#clip0_284_2040)">
<path d="M0.566625 8.3538C0.199031 9.50542 -4.68667e-05 10.7323 8.276e-09 12.0058C-4.68667e-05 13.2794 0.199078 14.5064 0.566672 15.658L12 16.1798L23.4333 15.6581C23.8009 14.5064 24 13.2794 24 12.0059C24 10.7323 23.8009 9.50542 23.4333 8.35375L12 7.83203L0.566625 8.3538Z" fill="#F0F0F0"/>
<path d="M23.4332 8.35375L11.9999 7.83203L0.5665 8.35375C0.457562 8.69519 0.363766 9.04333 0.285156 9.39723H23.7144C23.6359 9.04328 23.5421 8.69509 23.4332 8.35375Z" fill="#D80027"/>
<path d="M0.285156 14.6147C0.363672 14.9687 0.457469 15.3167 0.566406 15.6582L0.567531 15.6582L11.9997 16.1799L23.433 15.6582C23.542 15.3168 23.6357 14.9687 23.7143 14.6147H0.285156Z" fill="#D80027"/>
<path d="M11.9997 24.006C17.3536 24.006 21.8878 20.4996 23.433 15.6582H0.566406C2.11164 20.4996 6.64595 24.006 11.9997 24.006V24.006Z" fill="#6DA544"/>
<path d="M11.9997 0.00585938C6.64595 0.00590625 2.11173 3.5123 0.566406 8.35369L23.433 8.35373C21.8879 3.51225 17.3536 0.0058125 11.9997 0.00585938V0.00585938Z" fill="#338AF3"/>
<path d="M5.48278 4.96253C5.48278 3.83861 6.27267 2.8997 7.3275 2.66936C7.16541 2.63392 6.99717 2.61475 6.82439 2.61475C5.52773 2.61475 4.47656 3.66587 4.47656 4.96257C4.47656 6.25928 5.52764 7.3104 6.82439 7.3104C6.99717 7.3104 7.16536 7.29118 7.3275 7.25579C6.27272 7.02536 5.48278 6.08645 5.48278 4.96253V4.96253Z" fill="#F0F0F0"/>
<path d="M8.71433 6.02979L8.87323 6.51893H9.38755L8.97148 6.82127L9.13039 7.31041L8.71433 7.00811L8.29817 7.31041L8.45712 6.82127L8.04102 6.51893H8.55533L8.71433 6.02979Z" fill="#F0F0F0"/>
<path d="M10.3568 6.02979L10.5158 6.51893H11.0301L10.614 6.82127L10.7729 7.31041L10.3568 7.00811L9.9407 7.31041L10.0997 6.82127L9.68359 6.51893H10.1979L10.3568 6.02979Z" fill="#F0F0F0"/>
<path d="M11.9975 6.02979L12.1564 6.51893H12.6708L12.2547 6.82127L12.4136 7.31041L11.9975 7.00811L11.5814 7.31041L11.7404 6.82127L11.3242 6.51893H11.8386L11.9975 6.02979Z" fill="#F0F0F0"/>
<path d="M13.6401 6.02979L13.7991 6.51893H14.3133L13.8973 6.82127L14.0562 7.31041L13.6401 7.00811L13.224 7.31041L13.383 6.82127L12.9668 6.51893H13.4811L13.6401 6.02979Z" fill="#F0F0F0"/>
<path d="M15.2806 6.02979L15.4396 6.51893H15.9539L15.5378 6.82127L15.6968 7.31041L15.2806 7.00811L14.8645 7.31041L15.0235 6.82127L14.6074 6.51893H15.1217L15.2806 6.02979Z" fill="#F0F0F0"/>
<path d="M10.3568 4.32227L10.5158 4.81136H11.0301L10.614 5.11375L10.7729 5.60284L10.3568 5.30055L9.9407 5.60284L10.0997 5.11375L9.68359 4.81136H10.1979L10.3568 4.32227Z" fill="#F0F0F0"/>
<path d="M11.9975 4.32227L12.1564 4.81136H12.6708L12.2547 5.11375L12.4136 5.60284L11.9975 5.30055L11.5814 5.60284L11.7404 5.11375L11.3242 4.81136H11.8386L11.9975 4.32227Z" fill="#F0F0F0"/>
<path d="M13.6401 4.32227L13.7991 4.81136H14.3133L13.8973 5.11375L14.0562 5.60284L13.6401 5.30055L13.224 5.60284L13.383 5.11375L12.9668 4.81136H13.4811L13.6401 4.32227Z" fill="#F0F0F0"/>
<path d="M15.2806 4.32227L15.4396 4.81136H15.9539L15.5378 5.11375L15.6968 5.60284L15.2806 5.30055L14.8645 5.60284L15.0235 5.11375L14.6074 4.81136H15.1217L15.2806 4.32227Z" fill="#F0F0F0"/>
<path d="M11.9975 2.61475L12.1564 3.10393H12.6708L12.2547 3.40623L12.4136 3.89542L11.9975 3.59312L11.5814 3.89542L11.7404 3.40623L11.3242 3.10393H11.8386L11.9975 2.61475Z" fill="#F0F0F0"/>
<path d="M13.6401 2.61475L13.7991 3.10393H14.3133L13.8973 3.40623L14.0562 3.89542L13.6401 3.59312L13.224 3.89542L13.383 3.40623L12.9668 3.10393H13.4811L13.6401 2.61475Z" fill="#F0F0F0"/>
<path d="M15.2806 2.61475L15.4396 3.10393H15.9539L15.5378 3.40623L15.6968 3.89542L15.2806 3.59312L14.8645 3.89542L15.0235 3.40623L14.6074 3.10393H15.1217L15.2806 2.61475Z" fill="#F0F0F0"/>
</g>
<defs>
<clipPath id="clip0_284_2040">
<rect width="24" height="24" fill="white" transform="translate(0 0.00585938)"/>
</clipPath>
</defs>
</svg>
