<svg width="24" height="24" viewBox="0 0 24 24" fill="none" xmlns="http://www.w3.org/2000/svg">
<g clip-path="url(#clip0_284_2061)">
<path d="M24 12.0068C24 11.4763 23.9651 10.9539 23.8984 10.4416H10.4347C7.98306 7.99012 3.51452 3.52186 3.5147 3.52148C-1.17157 8.20776 -1.17157 15.8057 3.5147 20.4921L10.4348 13.572H23.8984C23.9651 13.0596 24 12.5373 24 12.0068V12.0068Z" fill="black"/>
<path d="M23.9978 12.2793C23.9973 12.3025 23.9967 12.3257 23.9961 12.3489C23.9967 12.3256 23.9972 12.3025 23.9978 12.2793Z" fill="#F0F0F0"/>
<path d="M23.9863 12.6074C23.9852 12.6303 23.9836 12.6532 23.9824 12.676C23.9836 12.6532 23.9851 12.6303 23.9863 12.6074Z" fill="#F0F0F0"/>
<path d="M23.9703 12.8691C23.968 12.9028 23.9656 12.9365 23.9629 12.9702C23.9656 12.9365 23.9679 12.9028 23.9703 12.8691Z" fill="#F0F0F0"/>
<path d="M23.9297 10.6987C23.9341 10.7389 23.9385 10.7789 23.9425 10.8192C23.9385 10.7789 23.934 10.7389 23.9297 10.6987Z" fill="#F0F0F0"/>
<path d="M23.9824 11.3369C23.9837 11.3598 23.9852 11.3826 23.9863 11.4055C23.9852 11.3826 23.9837 11.3597 23.9824 11.3369Z" fill="#F0F0F0"/>
<path d="M23.9961 11.6641C23.9967 11.6872 23.9972 11.7105 23.9978 11.7336C23.9973 11.7104 23.9967 11.6872 23.9961 11.6641Z" fill="#F0F0F0"/>
<path d="M23.9629 11.043C23.9656 11.0766 23.968 11.1103 23.9703 11.144C23.9679 11.1103 23.9656 11.0766 23.9629 11.043Z" fill="#F0F0F0"/>
<path d="M23.8975 10.4416C23.9029 10.4827 23.9076 10.524 23.9126 10.5652C23.2003 4.61764 18.1385 0.00683594 11.9991 0.00683594C8.68529 0.00683594 5.68525 1.35004 3.51367 3.5217L10.4335 10.4416H23.8975V10.4416Z" fill="#D80027"/>
<path d="M23.8975 13.5719H10.4335L3.51367 20.4918C5.68525 22.6634 8.68529 24.0067 11.9991 24.0067C18.1385 24.0067 23.2004 19.3959 23.9126 13.4482C23.9076 13.4894 23.9028 13.5308 23.8975 13.5719V13.5719Z" fill="#6DA544"/>
<path d="M23.9405 13.1943C23.9365 13.2346 23.9321 13.2746 23.9277 13.3148C23.9321 13.2746 23.9366 13.2346 23.9405 13.1943Z" fill="#F0F0F0"/>
<path d="M23.9688 11.1445C23.9733 11.2087 23.9774 11.273 23.9809 11.3375C23.9774 11.273 23.9733 11.2087 23.9688 11.1445V11.1445Z" fill="black"/>
<path d="M23.9141 10.5654C23.9195 10.6099 23.9246 10.6545 23.9293 10.6991C23.9245 10.6545 23.9194 10.61 23.9141 10.5654Z" fill="black"/>
<path d="M23.9414 10.8193C23.9487 10.8938 23.9553 10.9685 23.9613 11.0434C23.9554 10.9685 23.9488 10.8938 23.9414 10.8193Z" fill="black"/>
<path d="M23.9995 12.0068C23.9995 12.0981 23.9981 12.189 23.9961 12.2797C23.9981 12.1889 23.9995 12.0981 23.9995 12.0068Z" fill="black"/>
<path d="M23.9809 12.6763C23.9774 12.7407 23.9732 12.805 23.9688 12.8692C23.9732 12.805 23.9773 12.7407 23.9809 12.6763Z" fill="black"/>
<path d="M23.9613 12.9702C23.9553 13.0451 23.9487 13.1198 23.9414 13.1942C23.9488 13.1198 23.9554 13.0451 23.9613 12.9702Z" fill="black"/>
<path d="M23.9293 13.3149C23.9246 13.3596 23.9195 13.4041 23.9141 13.4486C23.9194 13.4041 23.9245 13.3596 23.9293 13.3149Z" fill="black"/>
<path d="M23.9961 11.7339C23.9981 11.8246 23.9995 11.9156 23.9995 12.0067C23.9995 11.9156 23.9981 11.8246 23.9961 11.7339Z" fill="black"/>
<path d="M23.9844 11.4058C23.9886 11.4916 23.9918 11.5778 23.9942 11.6642C23.9918 11.5778 23.9886 11.4916 23.9844 11.4058Z" fill="black"/>
<path d="M23.9942 12.3491C23.9918 12.4355 23.9886 12.5217 23.9844 12.6075C23.9887 12.5216 23.9918 12.4355 23.9942 12.3491Z" fill="black"/>
<path d="M23.9873 11.481H9.99255L2.80395 4.29346C2.57159 4.53852 2.31973 4.88071 2.16397 5.12441L9.0386 12.0026L2.1582 18.8832C2.29442 19.1255 2.59119 19.4842 2.79955 19.7176L9.99269 12.5245H23.989C23.9964 12.3514 23.9988 12.1776 23.9988 12.0027C23.9987 11.7685 23.9923 11.5957 23.9873 11.481Z" fill="#FFDA44"/>
<path d="M2.91417 14.5652V13.5601C3.9172 13.5601 4.73315 12.7441 4.73315 11.7411C4.73315 11.0315 4.15579 10.4542 3.4462 10.4542C2.96278 10.4542 2.56945 10.8475 2.56945 11.331C2.56945 11.6401 2.82093 11.8916 3.13012 11.8916C3.30487 11.8916 3.44704 11.7494 3.44704 11.5746H4.45214C4.45214 12.3037 3.85907 12.8967 3.13017 12.8967C2.26678 12.8968 1.56445 12.1943 1.56445 11.3311C1.56445 10.2934 2.40867 9.44922 3.44625 9.44922C4.71009 9.44922 5.73834 10.4775 5.73834 11.7413C5.73829 13.2983 4.4714 14.5652 2.91417 14.5652V14.5652Z" fill="#FFDA44"/>
</g>
<defs>
<clipPath id="clip0_284_2061">
<rect width="24" height="24" fill="white" transform="translate(0 0.00683594)"/>
</clipPath>
</defs>
</svg>
