<svg width="24" height="24" viewBox="0 0 24 24" fill="none" xmlns="http://www.w3.org/2000/svg">
<g clip-path="url(#clip0_284_977)">
<path d="M12.0003 24.0049C13.4682 24.0049 14.8743 23.7409 16.1742 23.2585L16.696 12.0049L16.1743 0.751273C14.8743 0.26893 13.4682 0.00488281 12.0003 0.00488281C10.5325 0.00488281 9.12639 0.26893 7.82645 0.751273L7.30469 12.0049L7.82641 23.2585C9.12639 23.7409 10.5325 24.0049 12.0003 24.0049Z" fill="#F0F0F0"/>
<path d="M0 12.0051C0 17.1647 3.2565 21.5632 7.82611 23.2587V0.751465C3.2565 2.44698 0 6.8455 0 12.0051Z" fill="#FF9811"/>
<path d="M16.1738 0.751465V23.2587C20.7434 21.5632 23.9999 17.1647 23.9999 12.0051C23.9999 6.8455 20.7434 2.44698 16.1738 0.751465V0.751465Z" fill="#6DA544"/>
</g>
<defs>
<clipPath id="clip0_284_977">
<rect width="24" height="24" fill="white" transform="translate(0 0.00488281)"/>
</clipPath>
</defs>
</svg>
