<svg width="24" height="24" viewBox="0 0 24 24" fill="none" xmlns="http://www.w3.org/2000/svg">
<g clip-path="url(#clip0_284_669)">
<path d="M0 12.001C0 5.3736 5.37262 0.000976562 12 0.000976562C18.6274 0.000976562 24 5.3736 24 12.001L12 13.0445L0 12.001Z" fill="#FFDA44"/>
<path d="M1.60547 18.0009C3.68039 21.5876 7.55808 24.0009 11.9997 24.0009C16.4414 24.0009 20.319 21.5876 22.394 18.0009L11.9997 17.2183L1.60547 18.0009Z" fill="#D80027"/>
<path d="M22.3942 18.001C23.4153 16.2359 24 14.1868 24 12.001H0C0 14.1868 0.584719 16.2359 1.60575 18.001H22.3942Z" fill="#0052B4"/>
<path d="M12.0001 16.1749C14.3052 16.1749 16.174 14.3062 16.174 12.001C16.174 9.69586 14.3052 7.82715 12.0001 7.82715C9.69489 7.82715 7.82617 9.69586 7.82617 12.001C7.82617 14.3062 9.69489 16.1749 12.0001 16.1749Z" fill="#FFDA44"/>
<path d="M11.9993 14.6097C10.5609 14.6097 9.39062 13.4394 9.39062 12.001V10.4358C9.39062 8.99738 10.5609 7.82715 11.9993 7.82715C13.4377 7.82715 14.608 8.99743 14.608 10.4358V12.001C14.608 13.4395 13.4378 14.6097 11.9993 14.6097Z" fill="#338AF3"/>
<path d="M16.174 5.74026H13.0436C13.0436 5.16398 12.5764 4.69678 12.0001 4.69678C11.4238 4.69678 10.9566 5.16398 10.9566 5.74026H7.82617C7.82617 6.31659 8.32816 6.78375 8.90439 6.78375H8.86966C8.86966 7.36007 9.33681 7.82723 9.91314 7.82723C9.91314 8.40356 10.3803 8.87071 10.9566 8.87071H13.0436C13.6199 8.87071 14.0871 8.40356 14.0871 7.82723C14.6634 7.82723 15.1306 7.36007 15.1306 6.78375H15.0958C15.6721 6.78375 16.174 6.31654 16.174 5.74026V5.74026Z" fill="black"/>
</g>
<defs>
<clipPath id="clip0_284_669">
<rect width="24" height="24" fill="white" transform="translate(0 0.000976562)"/>
</clipPath>
</defs>
</svg>