<svg width="24" height="24" viewBox="0 0 24 24" fill="none" xmlns="http://www.w3.org/2000/svg">
<g clip-path="url(#clip0_284_705)">
<path d="M0 12.0008C0 13.4687 0.264047 14.8747 0.746391 16.1747L12 16.6965L23.2536 16.1748C23.736 14.8747 24 13.4687 24 12.0008C24 10.533 23.736 9.12693 23.2536 7.82694L12 7.30518L0.746391 7.82689C0.264047 9.12693 0 10.533 0 12.0008H0Z" fill="black"/>
<path d="M11.9997 0.000976562C6.84012 0.000976562 2.44161 3.25748 0.746094 7.82709H23.2534C21.5578 3.25748 17.1593 0.000976562 11.9997 0.000976562V0.000976562Z" fill="#0052B4"/>
<path d="M23.2533 16.1748H0.746094C2.44161 20.7444 6.84012 24.0009 11.9997 24.0009C17.1593 24.0009 21.5578 20.7444 23.2533 16.1748Z" fill="#F0F0F0"/>
</g>
<defs>
<clipPath id="clip0_284_705">
<rect width="24" height="24" fill="white" transform="translate(0 0.000976562)"/>
</clipPath>
</defs>
</svg>
