<svg width="24" height="24" viewBox="0 0 24 24" fill="none" xmlns="http://www.w3.org/2000/svg">
<g clip-path="url(#clip0_284_760)">
<path d="M12 24.002C18.6274 24.002 24 18.6294 24 12.002C24 5.37454 18.6274 0.00195312 12 0.00195312C5.37258 0.00195312 0 5.37454 0 12.002C0 18.6294 5.37258 24.002 12 24.002Z" fill="#F0F0F0"/>
<path d="M23.8984 10.4367H9.39136H9.39131V0.287109C8.28234 0.533016 7.23098 0.931594 6.26086 1.46095V10.4366V10.4366H0.101578C0.0347813 10.949 0 11.4714 0 12.0019C0 12.5324 0.0347813 13.0547 0.101578 13.5671H6.26081H6.26086V22.5428C7.23098 23.0721 8.28234 23.4707 9.39131 23.7166V13.5672V13.5671H23.8984C23.9651 13.0547 24 12.5324 24 12.0019C24 11.4714 23.9651 10.949 23.8984 10.4367V10.4367Z" fill="#0052B4"/>
</g>
<defs>
<clipPath id="clip0_284_760">
<rect width="24" height="24" fill="white" transform="translate(0 0.00195312)"/>
</clipPath>
</defs>
</svg>
