<svg width="24" height="24" viewBox="0 0 24 24" fill="none" xmlns="http://www.w3.org/2000/svg">
<g clip-path="url(#clip0_284_746)">
<path d="M24 12.002C24 18.6293 18.6274 24.002 12 24.002C5.37262 24.002 0 18.6293 0 12.002C0 12.0048 12 0.00326563 12 0.00195312C18.6274 0.00195312 24 5.37458 24 12.002Z" fill="#338AF3"/>
<path d="M12.0001 5.74121V9.78854L7.82617 5.74121H12.0001Z" fill="#0052B4"/>
<path d="M6.26 12.0023H9.78556L6.26 7.30664L5.73828 10.9588L6.26 12.0023Z" fill="#0052B4"/>
<path d="M11.9688 12.0018H12.0009C12.0009 11.9911 12.0009 11.9806 12.0009 11.9697C11.9902 11.9805 11.9795 11.9911 11.9688 12.0018Z" fill="#F0F0F0"/>
<path d="M12 6.26281C12 4.15133 12 2.76781 12 0.00195312H11.998C5.3715 0.00307813 0 5.37519 0 12.002H6.26086V8.47644L9.78642 12.002H11.968C11.9787 11.9913 11.9894 11.9806 12.0001 11.9698C12.0001 11.1614 12.0001 10.44 12.0001 9.78842L8.47444 6.26281H12Z" fill="#F0F0F0"/>
<path d="M6.07027 1.56738C4.19344 2.63609 2.63316 4.19637 1.56445 6.0732V12.0022H4.69491V4.69793V4.69784H11.9993C11.9993 3.71051 11.9993 2.76991 11.9993 1.56738H6.07027Z" fill="#D80027"/>
<path d="M11.9989 10.5266L7.73544 6.26318H6.25977V6.26328L11.9988 12.0023H11.9989C11.9989 12.0023 11.9989 10.9848 11.9989 10.5266Z" fill="#D80027"/>
<path d="M13.5645 7.82815V12.002C13.5645 14.7976 17.2166 15.6542 17.2166 15.6542C17.2166 15.6542 20.8688 14.7976 20.8688 12.002V7.82815L17.2166 6.78467L13.5645 7.82815Z" fill="#F3F3F3"/>
<path d="M20.8688 7.8279V6.2627H13.5645V7.8279H16.6948V10.9584H13.5645V12.0018V12.0019L16.6948 12.0019V15.494C17.0097 15.6054 17.2166 15.654 17.2166 15.654C17.2166 15.654 17.4234 15.6054 17.7383 15.494V12.0019H20.8688V12.0018V10.9584H17.7383V7.82785H20.8688V7.8279Z" fill="#D80027"/>
</g>
<defs>
<clipPath id="clip0_284_746">
<rect width="24" height="24" fill="white" transform="translate(0 0.00195312)"/>
</clipPath>
</defs>
</svg>
