<svg width="24" height="24" viewBox="0 0 24 24" fill="none" xmlns="http://www.w3.org/2000/svg">
<g clip-path="url(#clip0_284_742)">
<path d="M12 24.002C18.6274 24.002 24 18.6294 24 12.002C24 5.37454 18.6274 0.00195312 12 0.00195312C5.37258 0.00195312 0 5.37454 0 12.002C0 18.6294 5.37258 24.002 12 24.002Z" fill="#F0F0F0"/>
<path d="M23.4781 12.0022L23.898 10.437C23.8283 9.90351 23.7237 9.38095 23.5865 8.87179H10.9563V0.0478516C10.4238 0.0936953 9.90139 0.174742 9.39111 0.287898L7.30414 1.5674L6.26066 1.46207C5.71152 1.7617 5.18834 2.10295 4.69545 2.48165V8.87174H0.413188C0.275984 9.3809 0.171359 9.90346 0.101609 10.4369L0.521516 12.0022L0.101562 13.5674C0.171313 14.1009 0.275938 14.6234 0.413141 15.1326H4.69541V21.5227C5.1883 21.9014 5.71152 22.2426 6.26061 22.5423L7.82581 22.4369L9.39102 23.7164C9.90134 23.8296 10.4238 23.9106 10.9562 23.9565V15.1326H23.5863C23.7235 14.6235 23.8281 14.1009 23.8979 13.5674L23.4781 12.0022Z" fill="#0052B4"/>
<path d="M23.8984 10.4367H9.39136H9.39131V0.287109C8.28234 0.533016 7.23098 0.931594 6.26086 1.46095V10.4366H0.101578C0.034875 10.949 0 11.4714 0 12.0019C0 12.5324 0.034875 13.0547 0.101578 13.5671H6.26081H6.26086V22.5428C7.23098 23.0721 8.28234 23.4707 9.39131 23.7166V13.5672V13.5671H23.8984C23.9651 13.0547 24 12.5324 24 12.0019C24 11.4714 23.9651 10.949 23.8984 10.4367V10.4367Z" fill="#D80027"/>
</g>
<defs>
<clipPath id="clip0_284_742">
<rect width="24" height="24" fill="white" transform="translate(0 0.00195312)"/>
</clipPath>
</defs>
</svg>
