<svg width="24" height="24" viewBox="0 0 24 24" fill="none" xmlns="http://www.w3.org/2000/svg">
<g clip-path="url(#clip0_284_791)">
<path d="M12 24.002C18.6274 24.002 24 18.6294 24 12.002C24 5.37454 18.6274 0.00195312 12 0.00195312C5.37258 0.00195312 0 5.37454 0 12.002C0 18.6294 5.37258 24.002 12 24.002Z" fill="#F0F0F0"/>
<path d="M23.8984 10.4367H13.5653H13.5652V0.103531C13.0529 0.0368281 12.5305 0.00195312 12 0.00195312C11.4695 0.00195312 10.9471 0.0368281 10.4348 0.103531V10.4367V10.4367H0.101578C0.034875 10.9491 0 11.4715 0 12.002C0 12.5325 0.034875 13.0548 0.101578 13.5672H10.4347H10.4348V23.9004C10.9471 23.9671 11.4695 24.002 12 24.002C12.5305 24.002 13.0529 23.9671 13.5652 23.9004V13.5673V13.5672H23.8984C23.9651 13.0548 24 12.5325 24 12.002C24 11.4715 23.9651 10.9491 23.8984 10.4367V10.4367Z" fill="#D80027"/>
<path d="M7.30428 5.74103V4.17578H5.73908V5.74103H4.17383V7.30623H5.73908V8.87144H7.30428V7.30623H8.86948V5.74103H7.30428Z" fill="#D80027"/>
<path d="M18.2613 5.74103V4.17578H16.6961V5.74103H15.1309V7.30623H16.6961V8.87144H18.2613V7.30623H19.8265V5.74103H18.2613Z" fill="#D80027"/>
<path d="M7.30428 16.6975V15.1323H5.73908V16.6975H4.17383V18.2627H5.73908V19.828H7.30428V18.2627H8.86948V16.6975H7.30428Z" fill="#D80027"/>
<path d="M18.2613 16.6975V15.1323H16.6961V16.6975H15.1309V18.2627H16.6961V19.828H18.2613V18.2627H19.8265V16.6975H18.2613Z" fill="#D80027"/>
</g>
<defs>
<clipPath id="clip0_284_791">
<rect width="24" height="24" fill="white" transform="translate(0 0.00195312)"/>
</clipPath>
</defs>
</svg>
