<svg width="24" height="24" viewBox="0 0 24 24" fill="none" xmlns="http://www.w3.org/2000/svg">
<g clip-path="url(#clip0_284_808)">
<path d="M12 24.0029C18.6274 24.0029 24 18.6303 24 12.0029C24 5.37551 18.6274 0.00292969 12 0.00292969C5.37258 0.00292969 0 5.37551 0 12.0029C0 18.6303 5.37258 24.0029 12 24.0029Z" fill="#F9F9F9"/>
<path d="M11.9997 24.0029C17.1593 24.0029 21.5578 20.7464 23.2533 16.1768H0.746094C2.44166 20.7464 6.84012 24.0029 11.9997 24.0029Z" fill="#D80027"/>
<path d="M16.6946 9.91573V8.35053H17.2163V7.30704H16.1728V7.82881H15.1294V7.30704H14.0859V8.35053H14.6076V9.91573H13.5641V6.26365H14.0859V5.22021H13.0424V5.74184H12.5206V5.22021H11.4772V5.74184H10.9554V5.22021H9.91194V6.26365H10.4337V9.91573H9.39022V8.35053H9.91194V7.30704H8.86845V7.82881H7.82502V7.30704H6.78153V8.35053H7.30325V9.91573H6.25977V14.0897H17.738V9.91573H16.6946Z" fill="#D80027"/>
<path d="M11.999 13.5684C11.1346 13.5684 10.4338 14.2691 10.4338 15.1336C10.4338 15.8149 10.8695 16.3945 11.4773 16.6094V18.7858H9.91211V20.8727H12.5208V16.6094C13.1286 16.3945 13.5643 15.815 13.5643 15.1336C13.5642 14.2692 12.8635 13.5684 11.999 13.5684V13.5684ZM11.999 15.6553C11.7109 15.6553 11.4773 15.4217 11.4773 15.1336C11.4773 14.8455 11.7109 14.6119 11.999 14.6119C12.2872 14.6119 12.5208 14.8455 12.5208 15.1336C12.5208 15.4217 12.2872 15.6553 11.999 15.6553Z" fill="#FFDA44"/>
</g>
<defs>
<clipPath id="clip0_284_808">
<rect width="24" height="24" fill="white" transform="translate(0 0.00292969)"/>
</clipPath>
</defs>
</svg>