<svg width="24" height="24" viewBox="0 0 24 24" fill="none" xmlns="http://www.w3.org/2000/svg">
<g clip-path="url(#clip0_284_879)">
<path d="M16.1743 0.750344C14.8742 0.267953 13.4681 0.00390625 12.0002 0.00390625C10.5325 0.00390625 9.12639 0.267953 7.82645 0.75025L7.30469 12.0039L7.82641 23.2576C9.12639 23.7399 10.5325 24.0039 12.0002 24.0039C13.4682 24.0039 14.8742 23.7399 16.1743 23.2575L16.696 12.0039L16.1743 0.750344Z" fill="#FFDA44"/>
<path d="M0 12.0041C0 17.1637 3.2565 21.5622 7.82611 23.2577V0.750488C3.2565 2.44605 0 6.84452 0 12.0041Z" fill="#D80027"/>
<path d="M23.9999 12.0041C23.9999 6.84452 20.7434 2.44605 16.1738 0.750488V23.2578C20.7434 21.5622 23.9999 17.1637 23.9999 12.0041Z" fill="#6DA544"/>
</g>
<defs>
<clipPath id="clip0_284_879">
<rect width="24" height="24" fill="white" transform="translate(0 0.00390625)"/>
</clipPath>
</defs>
</svg>
