<svg width="24" height="24" viewBox="0 0 24 24" fill="none" xmlns="http://www.w3.org/2000/svg">
<g clip-path="url(#clip0_284_917)">
<path d="M12 24.0039C18.6274 24.0039 24 18.6313 24 12.0039C24 5.37649 18.6274 0.00390625 12 0.00390625C5.37258 0.00390625 0 5.37649 0 12.0039C0 18.6313 5.37258 24.0039 12 24.0039Z" fill="#D80027"/>
<path d="M13.2387 9.08228C12.966 10.2166 12.4815 10.0003 12.2437 10.9895C10.8429 10.6527 9.98021 9.24414 10.317 7.84328C10.6537 6.44251 12.0624 5.57982 13.4632 5.91662C12.9876 7.89507 13.4827 8.06776 13.2387 9.08228Z" fill="#F0F0F0"/>
<path d="M9.60395 9.92261C10.5985 10.5325 10.243 10.9265 11.1103 11.4584C10.3571 12.6866 8.75092 13.0717 7.5227 12.3185C6.29453 11.5654 5.90936 9.95913 6.66255 8.73096C8.3972 9.79464 8.71431 9.37713 9.60395 9.92261V9.92261Z" fill="#F0F0F0"/>
<path d="M9.28044 13.6397C10.1678 12.8823 10.4326 13.3421 11.2065 12.6816C12.1419 13.7774 12.0117 15.4241 10.916 16.3595C9.82016 17.2948 8.17353 17.1646 7.23828 16.0689C8.78581 14.7478 8.4867 14.3171 9.28044 13.6397Z" fill="#F0F0F0"/>
<path d="M12.7145 15.0963C12.2683 14.0183 12.7875 13.9085 12.3984 12.9685C13.7296 12.4176 15.2555 13.0501 15.8065 14.3813C16.3574 15.7125 15.7248 17.2383 14.3936 17.7893C13.6156 15.9092 13.1136 16.0605 12.7145 15.0963Z" fill="#F0F0F0"/>
<path d="M15.1608 12.2797C13.9977 12.3709 14.0535 11.8431 13.0394 11.9227C12.9267 10.4865 13.9999 9.23069 15.4362 9.11795C16.8724 9.0055 18.1282 10.0786 18.2408 11.5149C16.2122 11.674 16.201 12.1982 15.1608 12.2797Z" fill="#F0F0F0"/>
</g>
<defs>
<clipPath id="clip0_284_917">
<rect width="24" height="24" fill="white" transform="translate(0 0.00390625)"/>
</clipPath>
</defs>
</svg>