<svg width="24" height="24" viewBox="0 0 24 24" fill="none" xmlns="http://www.w3.org/2000/svg">
<g clip-path="url(#clip0_284_937)">
<path d="M12 24.0039C18.6274 24.0039 24 18.6313 24 12.0039C24 5.37649 18.6274 0.00390625 12 0.00390625C5.37258 0.00390625 0 5.37649 0 12.0039C0 18.6313 5.37258 24.0039 12 24.0039Z" fill="#F0F0F0"/>
<path d="M12.0007 0.00390625C7.24316 0.00390625 3.13241 2.77258 1.19141 6.78653H22.8099C20.869 2.77258 16.7582 0.00390625 12.0007 0.00390625V0.00390625Z" fill="#FF9811"/>
<path d="M12.0007 24.0038C16.7582 24.0038 20.869 21.2351 22.81 17.2212H1.19141C3.13241 21.2351 7.24316 24.0038 12.0007 24.0038Z" fill="#6DA544"/>
<path d="M12.0001 16.1779C14.3052 16.1779 16.174 14.3091 16.174 12.004C16.174 9.69879 14.3052 7.83008 12.0001 7.83008C9.69489 7.83008 7.82617 9.69879 7.82617 12.004C7.82617 14.3091 9.69489 16.1779 12.0001 16.1779Z" fill="#0052B4"/>
<path d="M11.9993 14.6124C13.4401 14.6124 14.608 13.4444 14.608 12.0037C14.608 10.563 13.4401 9.39502 11.9993 9.39502C10.5586 9.39502 9.39062 10.563 9.39062 12.0037C9.39062 13.4444 10.5586 14.6124 11.9993 14.6124Z" fill="#F0F0F0"/>
<path d="M12.0007 8.78467L12.8055 10.6099L14.7885 10.3942L13.6102 12.0038L14.7885 13.6133L12.8055 13.3976L12.0007 15.2229L11.1959 13.3976L9.21289 13.6133L10.3911 12.0038L9.21289 10.3942L11.1959 10.6099L12.0007 8.78467Z" fill="#0052B4"/>
</g>
<defs>
<clipPath id="clip0_284_937">
<rect width="24" height="24" fill="white" transform="translate(0 0.00390625)"/>
</clipPath>
</defs>
</svg>