<svg width="24" height="24" viewBox="0 0 24 24" fill="none" xmlns="http://www.w3.org/2000/svg">
<g clip-path="url(#clip0_284_952)">
<path d="M12 24.0049C18.6274 24.0049 24 18.6323 24 12.0049C24 5.37747 18.6274 0.00488281 12 0.00488281C5.37258 0.00488281 0 5.37747 0 12.0049C0 18.6323 5.37258 24.0049 12 24.0049Z" fill="#F0F0F0"/>
<path d="M11.9997 0.00488281C6.84012 0.00488281 2.44161 3.26138 0.746094 7.83099H23.2534C21.5578 3.26138 17.1593 0.00488281 11.9997 0.00488281V0.00488281Z" fill="#A2001D"/>
<path d="M11.9997 24.0048C17.1593 24.0048 21.5578 20.7483 23.2533 16.1787H0.746094C2.44161 20.7483 6.84012 24.0048 11.9997 24.0048Z" fill="black"/>
<path d="M9.13039 11.2223C9.12383 11.2223 9.11741 11.2228 9.11084 11.2229V11.2223H6.81692C6.93322 10.773 7.34094 10.4397 7.82605 10.4397V8.87451C6.38759 8.87451 5.21736 10.0448 5.21736 11.4832V12.7615V12.7876H9.11084H9.13039C9.27425 12.7876 9.39125 12.9046 9.39125 13.0484V13.5702H4.17383V15.1354H10.9565V13.0484C10.9565 12.0415 10.1373 11.2223 9.13039 11.2223V11.2223Z" fill="#496E2D"/>
<path d="M13.0437 13.5702V8.87451H11.4785V15.1354H14.0872V13.5702H13.0437Z" fill="#496E2D"/>
<path d="M18.2615 13.5702V8.87451H16.6963V13.5702H16.1746V12.005H14.6094V15.1355H19.305V13.5702H18.2615Z" fill="#496E2D"/>
</g>
<defs>
<clipPath id="clip0_284_952">
<rect width="24" height="24" fill="white" transform="translate(0 0.00488281)"/>
</clipPath>
</defs>
</svg>