<svg width="24" height="24" viewBox="0 0 24 24" fill="none" xmlns="http://www.w3.org/2000/svg">
<g clip-path="url(#clip0_284_929)">
<path d="M12 24.0039C18.6274 24.0039 24 18.6313 24 12.0039C24 5.37649 18.6274 0.00390625 12 0.00390625C5.37258 0.00390625 0 5.37649 0 12.0039C0 18.6313 5.37258 24.0039 12 24.0039Z" fill="#F0F0F0"/>
<path d="M0.414062 15.1343C1.10838 17.7105 2.63861 19.9433 4.69633 21.5244V15.1343H0.414062Z" fill="#0052B4"/>
<path d="M10.957 23.9582C11.301 23.9878 11.6489 24.0038 12.0005 24.0038C17.5448 24.0038 22.2101 20.2435 23.5871 15.1343H10.957V23.9582Z" fill="#0052B4"/>
<path d="M23.5871 8.87345C22.2101 3.76427 17.5448 0.00390625 12.0005 0.00390625C11.6489 0.00390625 11.301 0.0199375 10.957 0.0495625V8.87345H23.5871Z" fill="#0052B4"/>
<path d="M4.69633 2.4834C2.63861 4.06449 1.10838 6.29729 0.414062 8.87349H4.69633V2.4834Z" fill="#0052B4"/>
<path d="M23.8984 10.4386H9.39136H9.39131V0.289062C8.28234 0.534969 7.23098 0.933547 6.26086 1.46291V10.4386H0.101578C0.0347813 10.951 0 11.4733 0 12.0038C0 12.5343 0.0347813 13.0567 0.101578 13.569H6.26081H6.26086V22.5447C7.23098 23.074 8.28234 23.4727 9.39131 23.7185V13.5692V13.5691H23.8984C23.9651 13.0567 24 12.5343 24 12.0038C24 11.4733 23.9651 10.951 23.8984 10.4386V10.4386Z" fill="#D80027"/>
</g>
<defs>
<clipPath id="clip0_284_929">
<rect width="24" height="24" fill="white" transform="translate(0 0.00390625)"/>
</clipPath>
</defs>
</svg>