<svg width="24" height="24" viewBox="0 0 24 24" fill="none" xmlns="http://www.w3.org/2000/svg">
<g clip-path="url(#clip0_284_990)">
<path d="M12 24.0049C18.6274 24.0049 24 18.6323 24 12.0049C24 5.37747 18.6274 0.00488281 12 0.00488281C5.37258 0.00488281 0 5.37747 0 12.0049C0 18.6323 5.37258 24.0049 12 24.0049Z" fill="#F0F0F0"/>
<path d="M21.5209 19.3117L14.2143 12.0051H14.2142L21.5209 4.69839C21.2058 4.28889 20.861 3.89491 20.486 3.51977C20.1109 3.14468 19.7169 2.79991 19.3074 2.48486L12.0007 9.7915L12.0007 9.79155L4.69405 2.48486C4.28459 2.79996 3.89056 3.14463 3.51542 3.51977C3.14028 3.89491 2.79556 4.28889 2.48052 4.69839L9.78716 12.005L9.7872 12.005L2.48047 19.3118C2.79561 19.7213 3.14033 20.1153 3.51538 20.4904C3.89052 20.8655 4.28445 21.2103 4.694 21.5253L12.0007 14.2187L12.0007 14.2186L19.3074 21.5253C19.7168 21.2102 20.1109 20.8654 20.486 20.4903C20.8611 20.1152 21.2058 19.7212 21.5209 19.3117V19.3117Z" fill="#D80027"/>
<path d="M9.91211 3.65703L11.9991 4.17875L14.086 3.65703V1.88314L13.2513 2.30051L11.9991 1.04834L10.7469 2.30051L9.91211 1.88314V3.65703Z" fill="#FFDA44"/>
<path d="M9.91211 3.65723V4.96166C9.91211 6.55916 11.9991 7.04863 11.9991 7.04863C11.9991 7.04863 14.086 6.55912 14.086 4.96166V3.65723H9.91211Z" fill="#D80027"/>
</g>
<defs>
<clipPath id="clip0_284_990">
<rect width="24" height="24" fill="white" transform="translate(0 0.00488281)"/>
</clipPath>
</defs>
</svg>