<svg width="24" height="24" viewBox="0 0 24 24" fill="none" xmlns="http://www.w3.org/2000/svg">
<g clip-path="url(#clip0_284_1006)">
<path d="M12 24.0059C18.6274 24.0059 24 18.6333 24 12.0059C24 5.37844 18.6274 0.00585938 12 0.00585938C5.37258 0.00585938 0 5.37844 0 12.0059C0 18.6333 5.37258 24.0059 12 24.0059Z" fill="#F0F0F0"/>
<path d="M12.0007 0.00585938C7.24316 0.00585938 3.13241 2.77453 1.19141 6.78848H22.8099C20.869 2.77453 16.7582 0.00585938 12.0007 0.00585938V0.00585938Z" fill="black"/>
<path d="M12.0007 24.0058C7.24316 24.0058 3.13241 21.2371 1.19141 17.2231H22.8099C20.869 21.2371 16.7582 24.0058 12.0007 24.0058V24.0058Z" fill="#496E2D"/>
<path d="M23.4333 8.35352H0.566672C0.199078 9.50519 0 10.7321 0 12.0057C0 13.2792 0.199078 14.5062 0.566672 15.6579H23.4333C23.8009 14.5062 24 13.2792 24 12.0057C24 10.7321 23.8009 9.50519 23.4333 8.35352Z" fill="#A2001D"/>
<path d="M15.737 5.55143L14.3158 4.89551L12.0003 10.1385L9.68478 4.89551L8.26367 5.55143L11.1384 12.0061L8.26367 18.4607L9.68478 19.1166L12.0003 13.8736L14.3158 19.1166L15.737 18.4607L12.8622 12.0061L15.737 5.55143Z" fill="#F0F0F0"/>
<path d="M12.9656 6.1698C12.4154 5.56901 12.0004 5.22363 12.0004 5.22363C12.0004 5.22363 11.5853 5.56896 11.0352 6.1698V17.8426C11.5853 18.4435 12.0004 18.7889 12.0004 18.7889C12.0004 18.7889 12.4154 18.4436 12.9656 17.8427V6.1698Z" fill="#F0F0F0"/>
<path d="M9.39062 8.40776V15.6036C9.97197 16.6337 10.6835 17.478 11.2167 18.0378V5.97363C10.6835 6.53337 9.97192 7.37773 9.39062 8.40776V8.40776Z" fill="#A2001D"/>
<path d="M14.6074 8.40776C14.026 7.37768 13.3145 6.53337 12.7812 5.97363V18.0378C13.3145 17.478 14.026 16.6337 14.6074 15.6036V8.40776Z" fill="#A2001D"/>
<path d="M14.6094 8.40771V15.6036C15.1979 14.5607 15.6529 13.3274 15.6529 12.0057C15.6529 10.684 15.1979 9.45068 14.6094 8.40771Z" fill="black"/>
<path d="M9.39114 8.40771V15.6036C8.80263 14.5607 8.34766 13.3274 8.34766 12.0057C8.34766 10.684 8.80263 9.45068 9.39114 8.40771Z" fill="black"/>
</g>
<defs>
<clipPath id="clip0_284_1006">
<rect width="24" height="24" fill="white" transform="translate(0 0.00585938)"/>
</clipPath>
</defs>
</svg>