<svg width="24" height="24" viewBox="0 0 24 24" fill="none" xmlns="http://www.w3.org/2000/svg">
<g clip-path="url(#clip0_284_1001)">
<path d="M12 24.0059C18.6274 24.0059 24 18.6333 24 12.0059C24 5.37844 18.6274 0.00585938 12 0.00585938C5.37258 0.00585938 0 5.37844 0 12.0059C0 18.6333 5.37258 24.0059 12 24.0059Z" fill="#338AF3"/>
<path d="M18.782 12.1362H5.2168C5.2168 13.0727 6.03247 13.8319 6.96889 13.8319H6.91245C6.91245 14.7684 7.67159 15.5275 8.60811 15.5275C8.60811 16.4641 9.36725 17.2232 10.3038 17.2232H13.6951C14.6316 17.2232 15.3907 16.4641 15.3907 15.5275C16.3272 15.5275 17.0864 14.7684 17.0864 13.8319H17.03C17.9663 13.8319 18.782 13.0727 18.782 12.1362V12.1362Z" fill="#FFDA44"/>
<path d="M16.696 9.91895C16.696 12.5123 14.5937 14.6146 12.0003 14.6146C9.40698 14.6146 7.30469 12.5123 7.30469 9.91895" fill="#338AF3"/>
<path d="M15.5873 9.91873L14.1218 10.6081L14.9022 12.0275L13.3108 11.723L13.1092 13.3307L12.0007 12.1482L10.8922 13.3307L10.6906 11.723L9.09919 12.0274L9.87956 10.6081L8.41406 9.91873L9.87961 9.22938L9.09919 7.81005L10.6905 8.11446L10.8922 6.50684L12.0007 7.68926L13.1092 6.50684L13.3108 8.11446L14.9023 7.81005L14.1218 9.22943L15.5873 9.91873Z" fill="#FFDA44"/>
</g>
<defs>
<clipPath id="clip0_284_1001">
<rect width="24" height="24" fill="white" transform="translate(0 0.00585938)"/>
</clipPath>
</defs>
</svg>
