<svg width="24" height="24" viewBox="0 0 24 24" fill="none" xmlns="http://www.w3.org/2000/svg">
<g clip-path="url(#clip0_308_4444)">
<mask id="mask0_308_4444" style="mask-type:alpha" maskUnits="userSpaceOnUse" x="0" y="0" width="24" height="24">
<circle cx="12" cy="12" r="12" fill="#D9D9D9"/>
</mask>
<g mask="url(#mask0_308_4444)">
<path d="M12 24C18.6274 24 24 18.6274 24 12C24 5.37258 18.6274 0 12 0C5.37258 0 0 5.37258 0 12C0 18.6274 5.37258 24 12 24Z" fill="#0071BC"/>
<path d="M3.51497 3.52019C8.20123 -1.16607 15.7993 -1.16607 20.4855 3.52019C25.1718 8.20645 25.1718 15.8045 20.4855 20.4907C20.1166 20.1218 10.8935 13.1122 10.8935 13.1122L3.51497 3.52019Z" fill="#0071BC"/>
<mask id="mask1_308_4444" style="mask-type:alpha" maskUnits="userSpaceOnUse" x="0" y="3" width="21" height="22">
<path d="M20.4851 20.4911C15.7989 25.1774 8.20084 25.1774 3.51458 20.4911C-1.17168 15.8049 -1.17168 8.20684 3.51458 3.52058" fill="#0071BC"/>
</mask>
<g mask="url(#mask1_308_4444)">
<path d="M9 4H16L13.8125 9.29412L16 24H9L10.75 9.29412L9 4Z" fill="#8C8A8C"/>
</g>
<circle cx="12" cy="11" r="7" stroke="white" stroke-width="2"/>
<path d="M8 6H17L14.1875 10.5787L15.5 21L9.5 21.5L10.5 10.5787L8 6Z" fill="#8C8A8C"/>
<path d="M12.4859 6L13.7809 9.98573H17.9718L14.5813 12.449L15.8763 16.4348L12.4859 13.9715L9.09541 16.4348L10.3905 12.449L7 9.98573H11.1908L12.4859 6Z" fill="white"/>
</g>
</g>
<defs>
<clipPath id="clip0_308_4444">
<rect width="24" height="24" fill="white"/>
</clipPath>
</defs>
</svg>