<svg width="24" height="24" viewBox="0 0 24 24" fill="none" xmlns="http://www.w3.org/2000/svg">
<g clip-path="url(#clip0_284_1269)">
<path d="M12 24C18.6274 24 24 18.6274 24 12C24 5.37258 18.6274 0 12 0C5.37258 0 0 5.37258 0 12C0 18.6274 5.37258 24 12 24Z" fill="#F0F0F0"/>
<path d="M6.48666 16.6958L3.51562 20.485C5.68706 22.6568 8.68673 24.0001 12.0005 24.0001C16.9613 24.0001 21.2182 20.9894 23.0457 16.6958H6.48666Z" fill="#FFDA44"/>
<path d="M23.0644 7.3478C21.2471 3.03103 16.9781 0 12.0005 0C8.68673 0 5.68706 1.34339 3.51562 3.51511L6.52078 7.3478H23.0644Z" fill="#496E2D"/>
<path d="M2.60938 8.82617V15.1305H23.5873C23.8565 14.1325 24.0007 13.0832 24.0007 12.0001C24.0007 10.9012 23.8527 9.83717 23.576 8.82617H2.60938Z" fill="black"/>
<path d="M3.51471 3.51465C-1.17157 8.20093 -1.17157 15.7989 3.51471 20.4853C5.45126 18.5487 7.31374 16.6862 12 12L3.51471 3.51465Z" fill="#A2001D"/>
<path d="M4.85597 8.86963L5.63292 11.261H8.14758L6.1133 12.7391L6.8902 15.1305L4.85597 13.6525L2.82164 15.1305L3.59873 12.7391L1.56445 11.261H4.07892L4.85597 8.86963Z" fill="#FFDA44"/>
<path d="M2.58398 12H7.13198V14.087H2.58398V12Z" fill="#F0F0F0"/>
<path d="M7.99155 9.60754L7.25369 8.86963L4.85612 11.2672L2.45856 8.86963L1.7207 9.60754L4.12038 12.0029L1.7207 14.4027L2.45856 15.1305L4.85612 12.7373L7.25369 15.1305L7.99155 14.4027L5.59187 12.0029L7.99155 9.60754Z" fill="black"/>
</g>
<defs>
<clipPath id="clip0_284_1269">
<rect width="24" height="24" fill="white"/>
</clipPath>
</defs>
</svg>