<svg width="24" height="25" viewBox="0 0 24 25" fill="none" xmlns="http://www.w3.org/2000/svg">
<g clip-path="url(#clip0_284_1400)">
<path d="M12 24.0107C18.6274 24.0107 24 18.6382 24 12.0107C24 5.38332 18.6274 0.0107422 12 0.0107422C5.37258 0.0107422 0 5.38332 0 12.0107C0 18.6382 5.37258 24.0107 12 24.0107Z" fill="#F0F0F0"/>
<path d="M0.414062 15.1411C1.10838 17.7173 2.63861 19.9502 4.69633 21.5312V15.1411H0.414062Z" fill="#D80027"/>
<path d="M10.957 23.965C11.301 23.9946 11.6489 24.0107 12.0005 24.0107C17.5448 24.0107 22.2101 20.2503 23.5871 15.1411H10.957V23.965Z" fill="#D80027"/>
<path d="M23.5871 8.88029C22.2101 3.7711 17.5448 0.0107422 12.0005 0.0107422C11.6489 0.0107422 11.301 0.0267734 10.957 0.0563984V8.88029H23.5871Z" fill="#D80027"/>
<path d="M4.69633 2.49023C2.63861 4.07133 1.10838 6.30412 0.414062 8.88033H4.69633V2.49023Z" fill="#D80027"/>
<path d="M23.8984 10.4455H9.39136H9.39131V0.295898C8.28234 0.541805 7.23098 0.940383 6.26086 1.46974V10.4454V10.4454H0.101578C0.0347813 10.9578 0 11.4802 0 12.0107C0 12.5411 0.0347813 13.0635 0.101578 13.5759H6.26081H6.26086V22.5515C7.23098 23.0809 8.28234 23.4795 9.39131 23.7254V13.576V13.5759H23.8984C23.9651 13.0635 24 12.5411 24 12.0107C24 11.4802 23.9651 10.9578 23.8984 10.4455V10.4455Z" fill="#0052B4"/>
</g>
<defs>
<clipPath id="clip0_284_1400">
<rect width="24" height="24" fill="white" transform="translate(0 0.0107422)"/>
</clipPath>
</defs>
</svg>