<svg width="24" height="24" viewBox="0 0 24 24" fill="none" xmlns="http://www.w3.org/2000/svg">
<g clip-path="url(#clip0_284_1645)">
<path d="M12 24.001C18.6274 24.001 24 18.6284 24 12.001C24 5.37356 18.6274 0.000976562 12 0.000976562C5.37258 0.000976562 0 5.37356 0 12.001C0 18.6284 5.37258 24.001 12 24.001Z" fill="#F0F0F0"/>
<path d="M0 12.001C0 5.3736 5.37262 0.000976562 12 0.000976562C18.6274 0.000976562 24 5.3736 24 12.001" fill="#D80027"/>
<path d="M7.30353 6.26199C7.30353 4.51364 8.53227 3.05311 10.1731 2.69475C9.92089 2.63972 9.65928 2.60986 9.39045 2.60986C7.37338 2.60986 5.73828 4.24496 5.73828 6.26204C5.73828 8.27911 7.37338 9.91421 9.39045 9.91421C9.65919 9.91421 9.92084 9.88435 10.1731 9.82927C8.53227 9.47091 7.30353 8.01038 7.30353 6.26199V6.26199Z" fill="#F0F0F0"/>
<path d="M11.9995 2.87061L12.2585 3.66771H13.0967L12.4186 4.16042L12.6776 4.95753L11.9995 4.46492L11.3214 4.95753L11.5804 4.16042L10.9023 3.66771H11.7405L11.9995 2.87061Z" fill="#F0F0F0"/>
<path d="M9.96639 4.43604L10.2254 5.23319H11.0635L10.3855 5.72585L10.6445 6.52296L9.96639 6.03035L9.2882 6.52296L9.54728 5.72585L8.86914 5.23319H9.70731L9.96639 4.43604Z" fill="#F0F0F0"/>
<path d="M14.0327 4.43604L14.2918 5.23319H15.1299L14.4518 5.72585L14.7108 6.52296L14.0327 6.03035L13.3546 6.52296L13.6136 5.72585L12.9355 5.23319H13.7737L14.0327 4.43604Z" fill="#F0F0F0"/>
<path d="M13.2495 6.78369L13.5085 7.58085H14.3467L13.6686 8.0735L13.9276 8.87061L13.2495 8.378L12.5714 8.87061L12.8304 8.0735L12.1523 7.58085H12.9904L13.2495 6.78369Z" fill="#F0F0F0"/>
<path d="M10.7476 6.78369L11.0066 7.58085H11.8448L11.1667 8.0735L11.4257 8.87061L10.7476 8.378L10.0695 8.87061L10.3285 8.0735L9.65039 7.58085H10.4886L10.7476 6.78369Z" fill="#F0F0F0"/>
</g>
<defs>
<clipPath id="clip0_284_1645">
<rect width="24" height="24" fill="white" transform="translate(0 0.000976562)"/>
</clipPath>
</defs>
</svg>
