<svg width="24" height="24" viewBox="0 0 24 24" fill="none" xmlns="http://www.w3.org/2000/svg">
<g clip-path="url(#clip0_284_681)">
<path d="M12 24.001C18.6274 24.001 24 18.6284 24 12.001C24 5.37356 18.6274 0.000976562 12 0.000976562C5.37258 0.000976562 0 5.37356 0 12.001C0 18.6284 5.37258 24.001 12 24.001Z" fill="#F0F0F0"/>
<path d="M12.0007 0.000976562C7.24316 0.000976562 3.13241 2.76965 1.19141 6.7836H22.8099C20.869 2.76965 16.7582 0.000976562 12.0007 0.000976562V0.000976562Z" fill="#0052B4"/>
<path d="M12.0007 24.0009C16.7582 24.0009 20.869 21.2322 22.81 17.2183H1.19141C3.13241 21.2322 7.24316 24.0009 12.0007 24.0009Z" fill="#0052B4"/>
<path d="M9.58984 12.5225L11.9997 8.34863L14.4095 12.5225H9.58984Z" fill="#FFDA44"/>
<path d="M15.13 13.9009L11.9996 15.4661L8.86914 13.9009V11.814H15.13V13.9009Z" fill="#6DA544"/>
<path d="M14.9514 8.52783L13.8446 9.6346C14.3167 10.1067 14.6088 10.7588 14.6088 11.4792C14.6088 12.92 13.4408 14.0879 12.0001 14.0879C10.5594 14.0879 9.39138 12.9199 9.39138 11.4792C9.39138 10.7588 9.68341 10.1067 10.1555 9.6346L9.04872 8.52783C8.29333 9.28308 7.82617 10.3266 7.82617 11.4792C7.82617 13.7844 9.69489 15.6531 12.0001 15.6531C14.3052 15.6531 16.174 13.7844 16.174 11.4792C16.1739 10.3266 15.7068 9.28308 14.9514 8.52783V8.52783Z" fill="#FFDA44"/>
</g>
<defs>
<clipPath id="clip0_284_681">
<rect width="24" height="24" fill="white" transform="translate(0 0.000976562)"/>
</clipPath>
</defs>
</svg>
