<svg width="24" height="24" viewBox="0 0 24 24" fill="none" xmlns="http://www.w3.org/2000/svg">
<g clip-path="url(#clip0_284_1915)">
<path d="M12 24.0049C18.6274 24.0049 24 18.6323 24 12.0049C24 5.37747 18.6274 0.00488281 12 0.00488281C5.37258 0.00488281 0 5.37747 0 12.0049C0 18.6323 5.37258 24.0049 12 24.0049Z" fill="#D80027"/>
<path d="M11.5097 9.81055L12.4943 11.1673L14.0888 10.6503L13.1027 12.0059L14.0872 13.3627L12.4932 12.8437L11.5071 14.1993L11.5081 12.523L9.91406 12.004L11.5087 11.487L11.5097 9.81055Z" fill="#F0F0F0"/>
<path d="M8.82198 15.3963C6.94905 15.3963 5.43067 13.8779 5.43067 12.005C5.43067 10.1321 6.94905 8.61368 8.82198 8.61368C9.40595 8.61368 9.95542 8.76138 10.4351 9.02131C9.68256 8.28527 8.65333 7.83105 7.51764 7.83105C5.21242 7.83105 3.34375 9.69977 3.34375 12.0049C3.34375 14.3101 5.21247 16.1788 7.51764 16.1788C8.65342 16.1788 9.68261 15.7246 10.4351 14.9886C9.95542 15.2486 9.40595 15.3963 8.82198 15.3963V15.3963Z" fill="#F0F0F0"/>
</g>
<defs>
<clipPath id="clip0_284_1915">
<rect width="24" height="24" fill="white" transform="translate(0 0.00488281)"/>
</clipPath>
</defs>
</svg>
