<svg width="24" height="24" viewBox="0 0 24 24" fill="none" xmlns="http://www.w3.org/2000/svg">
<g clip-path="url(#clip0_284_2030)">
<path d="M12 24.0059C18.6274 24.0059 24 18.6333 24 12.0059C24 5.37844 18.6274 0.00585938 12 0.00585938C5.37258 0.00585938 0 5.37844 0 12.0059C0 18.6333 5.37258 24.0059 12 24.0059Z" fill="#F0F0F0"/>
<path d="M12 8.87557H23.5866C23.2857 7.75929 22.8284 6.70737 22.2387 5.74512H12V8.87557Z" fill="#338AF3"/>
<path d="M4.53058 21.3971H19.4702C20.5654 20.5248 21.5046 19.4653 22.2391 18.2666H1.76172C2.4963 19.4653 3.43548 20.5248 4.53058 21.3971V21.3971Z" fill="#338AF3"/>
<path d="M12 0.00585938V2.61455H19.4699C17.42 0.981984 14.8242 0.00585938 12 0.00585938V0.00585938Z" fill="#338AF3"/>
<path d="M12 8.87557H23.5866C23.2857 7.75929 22.8284 6.70737 22.2387 5.74512H12V8.87557Z" fill="#338AF3"/>
<path d="M0 12.0059C0 13.089 0.144375 14.1382 0.413391 15.1363H23.5867C23.8556 14.1382 24 13.089 24 12.0059H0Z" fill="#338AF3"/>
<path d="M10.435 7.02854L8.96941 7.71793L9.74983 9.13731L8.15842 8.8329L7.95677 10.4405L6.84836 9.25811L5.73986 10.4405L5.53825 8.8329L3.94684 9.13721L4.72722 7.71789L3.26172 7.02854L4.72727 6.33925L3.94684 4.91987L5.5382 5.22428L5.73991 3.6167L6.84836 4.79907L7.95681 3.6167L8.15842 5.22428L9.74988 4.91987L8.96945 6.33929L10.435 7.02854Z" fill="#FFDA44"/>
</g>
<defs>
<clipPath id="clip0_284_2030">
<rect width="24" height="24" fill="white" transform="translate(0 0.00585938)"/>
</clipPath>
</defs>
</svg>
