<svg width="24" height="24" viewBox="0 0 24 24" fill="none" xmlns="http://www.w3.org/2000/svg">
<g clip-path="url(#clip0_4_7327)">
<path d="M12.0008 0.00585938C18.6281 0.00585938 24.0007 5.37848 24.0007 12.0059C24.0007 18.6332 18.6281 24.0059 12.0008 24.0059C12.0008 23.4841 10.4355 12.0059 10.4355 12.0059L12.0008 0.00585938Z" fill="#F0F0F0"/>
<path d="M12 24.0059C5.37262 24.0059 0 18.6332 0 12.0059C0 5.37848 5.37262 0.00585938 12 0.00585938" fill="#FFDA44"/>
<path d="M16.5942 10.4478L18.8494 13.4312C18.4941 13.9692 18.496 14.6941 18.9069 15.2377C19.4282 15.9273 20.4098 16.0638 21.0994 15.5425C21.789 15.0212 21.9255 14.0396 21.4042 13.35C20.9933 12.8064 20.2964 12.6069 19.6818 12.802L16.1671 8.15234L15.3347 8.78159L14.0859 9.72537L15.3444 11.3901L16.5942 10.4478ZM19.8409 13.8776C20.0708 13.7038 20.398 13.7494 20.5718 13.9791C20.7455 14.209 20.7001 14.5362 20.4702 14.7101C20.2404 14.8837 19.9132 14.8384 19.7394 14.6084C19.5656 14.3786 19.6111 14.0513 19.8409 13.8776Z" fill="#ACABB1"/>
<path d="M20.4642 11.3902L21.7227 9.72547L20.4741 8.78159L19.6417 8.15234L16.1269 12.802C15.5125 12.6069 14.8155 12.8065 14.4046 13.35C13.8833 14.0397 14.0198 15.0212 14.7093 15.5425C15.399 16.0637 16.3805 15.9273 16.9018 15.2377C17.3127 14.6941 17.3146 13.9692 16.9593 13.4312L19.2145 10.4478L20.4642 11.3902ZM16.0694 14.6085C15.8957 14.8385 15.5685 14.8839 15.3386 14.7102C15.1087 14.5363 15.0633 14.2091 15.237 13.9792C15.4107 13.7495 15.738 13.7039 15.9679 13.8777C16.1977 14.0515 16.2431 14.3787 16.0694 14.6085Z" fill="#FFDA44"/>
</g>
<defs>
<clipPath id="clip0_4_7327">
<rect width="24" height="24" fill="white" transform="translate(0 0.00585938)"/>
</clipPath>
</defs>
</svg>
