<svg width="24" height="24" viewBox="0 0 24 24" fill="none" xmlns="http://www.w3.org/2000/svg">
<g clip-path="url(#clip0_284_105)">
<path d="M12 24C18.6274 24 24 18.6274 24 12C24 5.37258 18.6274 0 12 0C5.37258 0 0 5.37258 0 12C0 18.6274 5.37258 24 12 24Z" fill="#FFDA44"/>
<path d="M12.0009 24.0001C15.638 24.0001 18.8969 22.3818 21.0975 19.8262H2.9043C5.10494 22.3818 8.36383 24.0001 12.0009 24.0001Z" fill="#338AF3"/>
<path d="M24 12C24 5.37262 18.6274 0 12 0C5.37262 0 0 5.37262 0 12C0 13.0831 0.144375 14.1323 0.413391 15.1305H23.5867C23.8556 14.1323 24 13.0831 24 12Z" fill="#338AF3"/>
<path d="M0.953125 16.6958C1.18445 17.2394 1.45488 17.7621 1.76055 18.261H22.238C22.5437 17.7621 22.8141 17.2393 23.0455 16.6958H0.953125Z" fill="#338AF3"/>
<path d="M5.4988 7.56868L3.1543 6.53396L5.4988 5.49924L6.53347 3.15479L7.56814 5.49924L9.91259 6.53396L7.56814 7.56868L6.53347 9.91313L5.4988 7.56868Z" fill="#F0F0F0"/>
<path d="M6.53423 4.44678L7.17319 5.8947L8.62116 6.53375L7.17319 7.17275L6.53423 8.62067L5.89519 7.17275L4.44727 6.53375L5.89519 5.8947L6.53423 4.44678Z" fill="#D80027"/>
</g>
<defs>
<clipPath id="clip0_284_105">
<rect width="24" height="24" fill="white"/>
</clipPath>
</defs>
</svg>
