<svg width="24" height="24" viewBox="0 0 24 24" fill="none" xmlns="http://www.w3.org/2000/svg">
<g clip-path="url(#clip0_284_606)">
<path d="M22.667 6.49763C22.1125 5.4233 21.3857 4.41493 20.4852 3.51436C19.5845 2.61375 18.5761 1.88696 17.5018 1.33252L9.04798 9.04843L1.33203 17.5023C1.88652 18.5766 2.61331 19.585 3.51387 20.4856C4.41444 21.3862 5.42286 22.113 6.49714 22.6674L14.951 14.9515L22.667 6.49763Z" fill="#FFDA44"/>
<path d="M3.51358 20.4858C4.01697 20.9892 4.55411 21.4381 5.1175 21.8334L21.8324 5.11848C21.4372 4.55509 20.9882 4.01795 20.4848 3.51455C19.9814 3.01116 19.4443 2.56224 18.8809 2.16699L2.16602 18.8819C2.56122 19.4452 3.01014 19.9824 3.51358 20.4858V20.4858Z" fill="#D80027"/>
<path d="M3.51441 3.51431C-0.271541 7.30026 -0.998338 12.9861 1.33257 17.5023L17.5024 1.33251C12.9862 -0.998347 7.30032 -0.271457 3.51441 3.51431V3.51431Z" fill="#338AF3"/>
<path d="M20.486 20.4855C24.2719 16.6996 24.9986 11.0137 22.6679 6.49756L6.49805 22.6673C11.0142 24.9982 16.7001 24.2714 20.486 20.4855V20.4855Z" fill="#338AF3"/>
<path d="M6.39547 3.65186L7.043 5.64484H9.1385L7.44322 6.87653L8.09075 8.86946L6.39547 7.63773L4.70009 8.86946L5.34772 6.87653L3.65234 5.64484H5.74784L6.39547 3.65186Z" fill="#FFDA44"/>
</g>
<defs>
<clipPath id="clip0_284_606">
<rect width="24" height="24" fill="white"/>
</clipPath>
</defs>
</svg>
