<svg width="24" height="24" viewBox="0 0 24 24" fill="none" xmlns="http://www.w3.org/2000/svg">
<g clip-path="url(#clip0_284_799)">
<path d="M0.746094 16.1767C2.44161 20.7463 6.84012 24.0028 11.9997 24.0028C17.1593 24.0028 21.5578 20.7463 23.2533 16.1767L11.9997 15.1333L0.746094 16.1767Z" fill="#FFDA44"/>
<path d="M11.9997 0.00292969C6.84012 0.00292969 2.44161 3.25943 0.746094 7.82904L11.9997 8.87248L23.2533 7.82899C21.5578 3.25943 17.1593 0.00292969 11.9997 0.00292969Z" fill="black"/>
<path d="M0.746391 7.8291C0.264047 9.12909 0 10.5351 0 12.003C0 13.4708 0.264047 14.8769 0.746391 16.1769H23.2537C23.736 14.8769 24 13.4708 24 12.003C24 10.5351 23.736 9.12909 23.2536 7.8291H0.746391Z" fill="#D80027"/>
</g>
<defs>
<clipPath id="clip0_284_799">
<rect width="24" height="24" fill="white" transform="translate(0 0.00292969)"/>
</clipPath>
</defs>
</svg>
