<svg width="24" height="24" viewBox="0 0 24 24" fill="none" xmlns="http://www.w3.org/2000/svg">
<g clip-path="url(#clip0_284_868)">
<path d="M12 24.0029C18.6274 24.0029 24 18.6303 24 12.0029C24 5.37551 18.6274 0.00292969 12 0.00292969C5.37258 0.00292969 0 5.37551 0 12.0029C0 18.6303 5.37258 24.0029 12 24.0029Z" fill="#F0F0F0"/>
<path d="M23.8984 10.4377H13.5653H13.5652V0.104508C13.0529 0.0378047 12.5305 0.00292969 12 0.00292969C11.4695 0.00292969 10.9471 0.0378047 10.4348 0.104508V10.4377H0.101578C0.034875 10.9501 0 11.4724 0 12.0029C0 12.5334 0.034875 13.0558 0.101578 13.5681H10.4347H10.4348V23.9014C10.9471 23.9681 11.4695 24.0029 12 24.0029C12.5305 24.0029 13.0529 23.9681 13.5652 23.9014V13.5683V13.5682H23.8984C23.9651 13.0558 24 12.5334 24 12.0029C24 11.4724 23.9651 10.9501 23.8984 10.4377V10.4377Z" fill="#D80027"/>
<path d="M15.3914 12.5247L16.174 13.0465V10.9595L15.3914 11.4813H12.5218V8.61168L13.0435 7.8291H10.9566L11.4783 8.61168V11.4813H8.60875L7.82617 10.9595V13.0465L8.60875 12.5247H11.4783V15.3943L10.9566 16.1769H13.0435L12.5218 15.3943V12.5247H15.3914Z" fill="#FFDA44"/>
</g>
<defs>
<clipPath id="clip0_284_868">
<rect width="24" height="24" fill="white" transform="translate(0 0.00292969)"/>
</clipPath>
</defs>
</svg>
