<svg width="24" height="24" viewBox="0 0 24 24" fill="none" xmlns="http://www.w3.org/2000/svg">
<g clip-path="url(#clip0_284_814)">
<path d="M12 24.0029C18.6274 24.0029 24 18.6303 24 12.0029C24 5.37551 18.6274 0.00292969 12 0.00292969C5.37258 0.00292969 0 5.37551 0 12.0029C0 18.6303 5.37258 24.0029 12 24.0029Z" fill="#F0F0F0"/>
<path d="M12 8.87264H23.5866C23.2857 7.75636 22.8284 6.70444 22.2387 5.74219H12V8.87264Z" fill="#338AF3"/>
<path d="M4.53058 21.3941H19.4702C20.5654 20.5219 21.5046 19.4624 22.2391 18.2637H1.76172C2.4963 19.4624 3.43548 20.5219 4.53058 21.3941V21.3941Z" fill="#338AF3"/>
<path d="M4.17433 2.90625C3.23092 3.71864 2.41534 4.67531 1.76172 5.742H4.17433V2.90625Z" fill="#338AF3"/>
<path d="M12 12.003C12 10.7807 12 9.75775 12 8.87256H7.30434V12.003H4.17389V8.87256H0.413391C0.144375 9.87071 0 10.9199 0 12.003C0 13.0862 0.144375 14.1353 0.413391 15.1335H23.5867C23.8556 14.1353 24 13.0862 24 12.003H12Z" fill="#338AF3"/>
<path d="M12.0003 0.00292969C10.334 0.00292969 8.74703 0.342914 7.30469 0.956742V5.74207H12.0003C12.0003 4.64932 12.0003 3.71993 12.0003 2.61162H19.4702C17.4203 0.979055 14.8245 0.00292969 12.0003 0.00292969V0.00292969Z" fill="#338AF3"/>
</g>
<defs>
<clipPath id="clip0_284_814">
<rect width="24" height="24" fill="white" transform="translate(0 0.00292969)"/>
</clipPath>
</defs>
</svg>