<svg width="24" height="24" viewBox="0 0 24 24" fill="none" xmlns="http://www.w3.org/2000/svg">
<g clip-path="url(#clip0_284_883)">
<path d="M12 24.0039C18.6274 24.0039 24 18.6313 24 12.0039C24 5.37649 18.6274 0.00390625 12 0.00390625C5.37258 0.00390625 0 5.37649 0 12.0039C0 18.6313 5.37258 24.0039 12 24.0039Z" fill="#F0F0F0"/>
<path d="M11.9997 0.00390625C9.87812 0.00390625 7.88556 0.55525 6.15625 1.52134V22.4865C7.88561 23.4526 9.87812 24.0039 11.9997 24.0039C18.6271 24.0039 23.9997 18.6313 23.9997 12.0039C23.9997 5.37653 18.6271 0.00390625 11.9997 0.00390625Z" fill="#6DA544"/>
<path d="M6.19178 1.50146C5.43686 1.91982 4.73195 2.41707 4.08794 2.98239C4.15305 2.92529 4.21881 2.86886 4.28509 2.81317L13.4756 12.0038L4.28505 21.1944C4.21872 21.1387 4.153 21.0822 4.08789 21.0251C4.73191 21.5904 5.43686 22.0877 6.19173 22.5061L24 12.0038L6.19178 1.50146Z" fill="#F0F0F0"/>
<path d="M5.17739 2.13135C4.81144 2.38475 4.45997 2.65743 4.12505 2.94885L11.9991 12.0041L4.125 21.0593C4.45992 21.3507 4.81139 21.6234 5.17734 21.8768L21.945 12.0041L5.17739 2.13135Z" fill="#FFDA44"/>
<path d="M4.28602 2.81348C4.01925 3.03763 3.76181 3.27262 3.51562 3.51876L10.9575 12.0041L3.51562 20.4894C3.76181 20.7356 4.0192 20.9706 4.28602 21.1947L13.4766 12.0041L4.28602 2.81348Z" fill="black"/>
<path d="M3.51471 3.51855C-1.17157 8.20484 -1.17157 15.8028 3.51471 20.4892C5.45126 18.5526 7.31374 16.6901 12 12.0039L3.51471 3.51855Z" fill="#D80027"/>
</g>
<defs>
<clipPath id="clip0_284_883">
<rect width="24" height="24" fill="white" transform="translate(0 0.00390625)"/>
</clipPath>
</defs>
</svg>
