<svg width="24" height="24" viewBox="0 0 24 24" fill="none" xmlns="http://www.w3.org/2000/svg">
<g clip-path="url(#clip0_284_925)">
<path d="M0.746391 7.83011C0.264047 9.13014 0 10.5362 0 12.004C0 13.4718 0.264047 14.8779 0.746391 16.1779L12 17.2214L23.2536 16.1779C23.736 14.8779 24 13.4718 24 12.004C24 10.5362 23.736 9.13014 23.2536 7.83011L12 6.78662L0.746391 7.83011Z" fill="#F0F0F0"/>
<path d="M11.9997 0.00390625C6.84013 0.00390625 2.44156 3.26041 0.746094 7.83002H23.2534C21.5577 3.26041 17.1593 0.00390625 11.9997 0.00390625V0.00390625Z" fill="#D80027"/>
<path d="M11.9997 24.0038C17.1593 24.0038 21.5577 20.7473 23.2533 16.1777H0.746094C2.44156 20.7473 6.84012 24.0038 11.9997 24.0038V24.0038Z" fill="#6DA544"/>
</g>
<defs>
<clipPath id="clip0_284_925">
<rect width="24" height="24" fill="white" transform="translate(0 0.00390625)"/>
</clipPath>
</defs>
</svg>
