<svg width="24" height="24" viewBox="0 0 24 24" fill="none" xmlns="http://www.w3.org/2000/svg">
<g clip-path="url(#clip0_284_1100)">
<path d="M24 11.9998C24 18.6271 18.6274 23.9998 12 23.9998C5.37262 23.9998 0 18.6271 0 11.9998C0.521719 11.9998 12 10.4346 12 10.4346L24 11.9998Z" fill="#D80027"/>
<path d="M0 12C0 5.37262 5.37262 0 12 0C18.6274 0 24 5.37262 24 12" fill="#0052B4"/>
<path d="M8.87023 8.34797C8.87023 7.48355 8.16945 6.78277 7.30503 6.78277C6.90402 6.78277 6.53853 6.93371 6.26155 7.18163V6.261H6.78327V5.21752H6.26155V4.6958H5.21806V5.21752H4.69634V6.261H5.21806V7.18163C4.94108 6.93371 4.57559 6.78277 4.17458 6.78277C3.31016 6.78277 2.60938 7.48355 2.60938 8.34797C2.60938 8.81143 2.81098 9.22768 3.13109 9.51432V10.4349H8.34847V9.51432C8.66867 9.22768 8.87023 8.81143 8.87023 8.34797V8.34797Z" fill="#FFDA44"/>
</g>
<defs>
<clipPath id="clip0_284_1100">
<rect width="24" height="24" fill="white"/>
</clipPath>
</defs>
</svg>