<svg width="24" height="24" viewBox="0 0 24 24" fill="none" xmlns="http://www.w3.org/2000/svg">
<g clip-path="url(#clip0_284_1471)">
<path d="M12 24C18.6274 24 24 18.6274 24 12C24 5.37258 18.6274 0 12 0C5.37258 0 0 5.37258 0 12C0 18.6274 5.37258 24 12 24Z" fill="#F0F0F0"/>
<path d="M12.0009 0V12L3.51562 20.4853C5.6872 22.6568 8.6872 24 12.0009 24C18.6283 24 24.0009 18.6274 24.0009 12C24.0009 5.37262 12.0009 0 12.0009 0Z" fill="#D80027"/>
<path d="M12.0009 0C8.6872 0 5.6872 1.34316 3.51562 3.51469C6.45984 6.45891 7.50502 7.50412 12.0009 12H24.0009C24.0009 5.37262 18.6283 0 12.0009 0Z" fill="#0052B4"/>
<path d="M8.21625 12.0003L6.75075 11.3109L7.53117 9.8916L5.93977 10.1961L5.73811 8.58838L4.62961 9.77075L3.52116 8.58838L3.31945 10.1961L1.72809 9.89155L2.50852 11.3109L1.04297 12.0003L2.50852 12.6896L1.72809 14.1089L3.31959 13.8045L3.52111 15.4122L4.62961 14.2298L5.73811 15.4122L5.93977 13.8045L7.53108 14.109L6.7507 12.6897L8.21625 12.0003Z" fill="#FFDA44"/>
<path d="M3.19984 4.6958L3.68753 5.3775L4.48652 5.12443L3.9888 5.79886L4.47648 6.48057L3.6812 6.21568L3.18353 6.89007L3.18977 6.05194L2.39453 5.787L3.19366 5.53393L3.19984 4.6958Z" fill="#FFDA44"/>
<path d="M3.19984 17.1104L3.68753 17.7921L4.48652 17.5389L3.9888 18.2134L4.47648 18.8951L3.6812 18.6302L3.18353 19.3046L3.18977 18.4665L2.39453 18.2016L3.19366 17.9485L3.19984 17.1104Z" fill="#FFDA44"/>
<path d="M10.1558 10.9028L9.66817 11.5845L8.86914 11.3314L9.36686 12.0058L8.87917 12.6876L9.67445 12.4227L10.1722 13.0971L10.1659 12.259L10.9611 11.994L10.162 11.741L10.1558 10.9028Z" fill="#FFDA44"/>
</g>
<defs>
<clipPath id="clip0_284_1471">
<rect width="24" height="24" fill="white"/>
</clipPath>
</defs>
</svg>