<svg width="24" height="25" viewBox="0 0 24 25" fill="none" xmlns="http://www.w3.org/2000/svg">
<g clip-path="url(#clip0_284_1439)">
<path d="M12 24.0107C18.6274 24.0107 24 18.6382 24 12.0107C24 5.38332 18.6274 0.0107422 12 0.0107422C5.37258 0.0107422 0 5.38332 0 12.0107C0 18.6382 5.37258 24.0107 12 24.0107Z" fill="#F0F0F0"/>
<path d="M7.30486 7.83685H23.2541C21.5586 3.26724 17.16 0.0107422 12.0005 0.0107422C8.68673 0.0107422 5.68706 1.35413 3.51562 3.52585L7.30486 7.83685Z" fill="black"/>
<path d="M7.30486 16.1846H23.2541C21.5586 20.7542 17.16 24.0107 12.0005 24.0107C8.68673 24.0107 5.68706 22.6673 3.51562 20.4956L7.30486 16.1846Z" fill="#6DA544"/>
<path d="M3.51471 3.52539C-1.17157 8.21167 -1.17157 15.8097 3.51471 20.496C5.45126 18.5595 7.31374 16.697 12 12.0107L3.51471 3.52539Z" fill="#D80027"/>
</g>
<defs>
<clipPath id="clip0_284_1439">
<rect width="24" height="24" fill="white" transform="translate(0 0.0107422)"/>
</clipPath>
</defs>
</svg>
