<svg width="24" height="24" viewBox="0 0 24 24" fill="none" xmlns="http://www.w3.org/2000/svg">
<g clip-path="url(#clip0_284_1603)">
<path d="M12 24.001C18.6274 24.001 24 18.6284 24 12.001C24 5.37356 18.6274 0.000976562 12 0.000976562C5.37258 0.000976562 0 5.37356 0 12.001C0 18.6284 5.37258 24.001 12 24.001Z" fill="#6DA544"/>
<path d="M6.7832 14.3491C6.7832 15.2135 7.48398 15.9143 8.34841 15.9143H13.0441C13.0441 16.6347 13.628 17.2187 14.3484 17.2187H15.9136C16.634 17.2187 17.218 16.6347 17.218 15.9143V14.3491H6.7832Z" fill="#F0F0F0"/>
<path d="M17.3482 6.78369V10.4359C17.3482 11.0113 16.8801 11.4793 16.3047 11.4793V13.0446C17.7431 13.0446 18.9134 11.8743 18.9134 10.4359V6.78369H17.3482Z" fill="#F0F0F0"/>
<path d="M6.13138 10.4359C6.13138 11.0113 5.66328 11.4793 5.08789 11.4793V13.0446C6.52634 13.0446 7.69658 11.8743 7.69658 10.4359V6.78369H6.13138V10.4359Z" fill="#F0F0F0"/>
<path d="M15 6.78369H16.5652V10.4359H15V6.78369Z" fill="#F0F0F0"/>
<path d="M12.6524 8.87066C12.6524 9.01452 12.5354 9.13152 12.3915 9.13152C12.2477 9.13152 12.1307 9.01447 12.1307 8.87066V6.78369H10.5655V8.87066C10.5655 9.01452 10.4484 9.13152 10.3046 9.13152C10.1608 9.13152 10.0438 9.01447 10.0438 8.87066V6.78369H8.47852V8.87066C8.47852 9.87758 9.2977 10.6968 10.3046 10.6968C10.6924 10.6968 11.052 10.5749 11.3481 10.3679C11.6441 10.5748 12.0038 10.6968 12.3916 10.6968C12.4697 10.6968 12.5465 10.6913 12.622 10.6817C12.5111 11.1387 12.0995 11.4793 11.609 11.4793V13.0446C13.0474 13.0446 14.2177 11.8743 14.2177 10.4359V8.87066V6.78369H12.6525V8.87066H12.6524Z" fill="#F0F0F0"/>
<path d="M8.47852 11.4795H10.8263V13.0447H8.47852V11.4795Z" fill="#F0F0F0"/>
</g>
<defs>
<clipPath id="clip0_284_1603">
<rect width="24" height="24" fill="white" transform="translate(0 0.000976562)"/>
</clipPath>
</defs>
</svg>
