<svg width="24" height="24" viewBox="0 0 24 24" fill="none" xmlns="http://www.w3.org/2000/svg">
<g clip-path="url(#clip0_284_1792)">
<path d="M12 24.0029C18.6274 24.0029 24 18.6303 24 12.0029C24 5.37551 18.6274 0.00292969 12 0.00292969C5.37258 0.00292969 0 5.37551 0 12.0029C0 18.6303 5.37258 24.0029 12 24.0029Z" fill="#F0F0F0"/>
<path d="M23.2536 7.8291H0.746344C0.264047 9.12913 0 10.5351 0 12.003C0 13.4708 0.264047 14.8769 0.746344 16.1769H23.2536C23.736 14.8769 24 13.4708 24 12.003C24 10.5351 23.736 9.12913 23.2536 7.8291Z" fill="#A2001D"/>
<path d="M12.0345 24.003C16.1446 24.003 19.7716 21.9362 21.9343 18.7856H2.13477C4.29748 21.9362 7.92439 24.003 12.0345 24.003Z" fill="#6DA544"/>
<path d="M12.0345 0.00292969C16.1446 0.00292969 19.7716 2.06974 21.9343 5.2203H2.13477C4.29748 2.06974 7.92439 0.00292969 12.0345 0.00292969V0.00292969Z" fill="#6DA544"/>
<path d="M12 7.8291L13.036 11.0175H16.3888L13.6764 12.9884L14.7125 16.1769L12 14.2063L9.28763 16.1769L10.3238 12.9884L7.61133 11.0175H10.9641L12 7.8291Z" fill="#FFDA44"/>
</g>
<defs>
<clipPath id="clip0_284_1792">
<rect width="24" height="24" fill="white" transform="translate(0 0.00292969)"/>
</clipPath>
</defs>
</svg>
