<svg width="24" height="24" viewBox="0 0 24 24" fill="none" xmlns="http://www.w3.org/2000/svg">
<g clip-path="url(#clip0_284_1670)">
<path d="M10.9575 13.0454C10.9575 13.0454 3.52266 3.515 3.51562 3.51669C5.68716 1.34511 8.6872 0.00195312 12.0009 0.00195312C18.6283 0.00195312 24.0009 5.37458 24.0009 12.002L10.9575 13.0454Z" fill="#D80027"/>
<path d="M10.9575 12.002C10.9575 12.002 3.52266 20.4889 3.51562 20.4872C5.68716 22.6588 8.6872 24.002 12.0009 24.002C18.6283 24.002 24.0009 18.6293 24.0009 12.002H10.9575Z" fill="#0052B4"/>
<path d="M3.51471 3.5166C-1.17157 8.20288 -1.17157 15.8009 3.51471 20.4872C5.45126 18.5507 7.31374 16.6882 12 12.0019L3.51471 3.5166Z" fill="#F0F0F0"/>
<path d="M1.3157 12.002C1.30914 12.0881 1.30469 12.1749 1.30469 12.2628C1.30469 14.1357 2.82306 15.6541 4.696 15.6541C6.56894 15.6541 8.08731 14.1357 8.08731 12.2628C8.08731 12.1749 8.08286 12.0881 8.0763 12.002H1.3157Z" fill="#FFDA44"/>
<path d="M4.69583 10.4366C5.27213 10.4366 5.73931 9.96939 5.73931 9.39309C5.73931 8.81679 5.27213 8.34961 4.69583 8.34961C4.11953 8.34961 3.65234 8.81679 3.65234 9.39309C3.65234 9.96939 4.11953 10.4366 4.69583 10.4366Z" fill="#FFDA44"/>
<path d="M2.34766 9.13232V12.5236C2.34766 14.3208 4.69548 14.8715 4.69548 14.8715C4.69548 14.8715 7.04331 14.3208 7.04331 12.5236V9.13232H2.34766Z" fill="#D80027"/>
<path d="M4.69614 13.7794C4.26058 13.6226 3.39062 13.222 3.39062 12.5236V10.1758H5.99936V12.5236C5.99936 13.2243 5.1295 13.624 4.69614 13.7794V13.7794Z" fill="#338AF3"/>
<path d="M5.21645 11.4804V10.9586L4.69473 10.6978L4.17297 10.9586V11.4804L3.91211 11.7412V12.7847H5.47736V11.7412L5.21645 11.4804Z" fill="#F3F3F3"/>
</g>
<defs>
<clipPath id="clip0_284_1670">
<rect width="24" height="24" fill="white" transform="translate(0 0.00195312)"/>
</clipPath>
</defs>
</svg>
