<svg width="24" height="25" viewBox="0 0 24 25" fill="none" xmlns="http://www.w3.org/2000/svg">
<g clip-path="url(#clip0_284_483)">
<path d="M12.0003 0.0117188C10.5325 0.0117188 9.12639 0.275766 7.82645 0.758109L7.30469 12.0117L7.82641 23.2653C9.12639 23.7477 10.5325 24.0117 12.0003 24.0117C13.4682 24.0117 14.8743 23.7477 16.1742 23.2653L16.696 12.0117L16.1743 0.758109C14.8743 0.275766 13.4682 0.0117188 12.0003 0.0117188V0.0117188Z" fill="#FFDA44"/>
<path d="M23.9999 12.0119C23.9999 6.85233 20.7434 2.45382 16.1738 0.758301V23.2656C20.7434 21.57 23.9999 17.1715 23.9999 12.0119V12.0119Z" fill="#D80027"/>
<path d="M7.82611 23.2655V0.758301C3.2565 2.45382 0 6.85233 0 12.0119C0 17.1715 3.2565 21.57 7.82611 23.2655Z" fill="#0052B4"/>
</g>
<defs>
<clipPath id="clip0_284_483">
<rect width="24" height="24" fill="white" transform="translate(0 0.0117188)"/>
</clipPath>
</defs>
</svg>
