<svg width="24" height="24" viewBox="0 0 24 24" fill="none" xmlns="http://www.w3.org/2000/svg">
<g clip-path="url(#clip0_284_1831)">
<path d="M24 12.0029C24 18.6303 18.6274 24.0029 12 24.0029C5.37262 24.0029 0 18.6303 0 12.0029C4.12172 7.88121 7.61737 4.38555 12 0.00292969C18.6274 0.00292969 24 5.37555 24 12.0029Z" fill="#D80027"/>
<path d="M12 12.0029C12 5.37555 12 4.59424 12 0.00292969C5.37262 0.00292969 0 5.37555 0 12.0029H12Z" fill="#0052B4"/>
<path d="M10.435 7.02561L8.96945 7.71505L9.74983 9.13438L8.15847 8.82988L7.95677 10.4376L6.84836 9.25518L5.73986 10.4376L5.53825 8.82988L3.94684 9.13428L4.72722 7.71496L3.26172 7.02561L4.72727 6.33632L3.94684 4.91694L5.5382 5.22139L5.73991 3.61377L6.84836 4.79614L7.95681 3.61377L8.15847 5.22139L9.74988 4.91694L8.96945 6.33636L10.435 7.02561Z" fill="#F0F0F0"/>
<path d="M6.84897 9.25946C8.08263 9.25946 9.0827 8.25938 9.0827 7.02573C9.0827 5.79207 8.08263 4.79199 6.84897 4.79199C5.61531 4.79199 4.61523 5.79207 4.61523 7.02573C4.61523 8.25938 5.61531 9.25946 6.84897 9.25946Z" fill="#0052B4"/>
<path d="M6.84841 8.21595C6.19211 8.21595 5.6582 7.682 5.6582 7.0257C5.6582 6.3694 6.19216 5.83545 6.84841 5.83545C7.5047 5.83545 8.03866 6.3694 8.03866 7.0257C8.03861 7.682 7.50461 8.21595 6.84841 8.21595Z" fill="#F0F0F0"/>
</g>
<defs>
<clipPath id="clip0_284_1831">
<rect width="24" height="24" fill="white" transform="translate(0 0.00292969)"/>
</clipPath>
</defs>
</svg>
