<svg width="24" height="24" viewBox="0 0 24 24" fill="none" xmlns="http://www.w3.org/2000/svg">
<g clip-path="url(#clip0_284_1850)">
<path d="M12 24.0039C18.6274 24.0039 24 18.6313 24 12.0039C24 5.37649 18.6274 0.00390625 12 0.00390625C5.37258 0.00390625 0 5.37649 0 12.0039C0 18.6313 5.37258 24.0039 12 24.0039Z" fill="#FFDA44"/>
<path d="M3.51544 20.489C4.01883 20.9924 4.55592 21.4413 5.11931 21.8366L21.8335 5.12229C21.4384 4.5589 20.9894 4.0218 20.486 3.51841C19.9826 3.01502 19.4455 2.56615 18.8821 2.1709L2.16797 18.8852C2.56313 19.4484 3.01209 19.9856 3.51544 20.489V20.489Z" fill="black"/>
<path d="M3.51422 3.51856C-0.271495 7.30437 -0.998292 12.9899 1.33247 17.506L17.5016 1.33686C12.9856 -0.993907 7.29999 -0.267064 3.51422 3.51856V3.51856Z" fill="#6DA544"/>
<path d="M20.4854 20.4894C24.2711 16.7036 24.9979 11.018 22.6672 6.50195L6.49805 22.6711C11.014 25.0019 16.6996 24.2751 20.4854 20.4894Z" fill="#338AF3"/>
</g>
<defs>
<clipPath id="clip0_284_1850">
<rect width="24" height="24" fill="white" transform="translate(0 0.00390625)"/>
</clipPath>
</defs>
</svg>
