<svg width="24" height="24" viewBox="0 0 24 24" fill="none" xmlns="http://www.w3.org/2000/svg">
<g id="Flags Rounded">
<circle id="Ellipse 1" cx="12" cy="12" r="12" fill="#D4D7EE"/>
<path id="Vector" d="M12 0C5.3835 0 0 5.3835 0 12C0 18.6165 5.3835 24 12 24C18.6165 24 24 18.6165 24 12C24 5.3835 18.6165 0 12 0ZM1.21275 12C1.21275 10.167 1.6725 8.43975 2.4825 6.92625C2.63475 7.00425 2.7855 7.05825 2.9295 7.0725C3.9405 7.17375 3.738 8.892 4.539 9.3975C5.3415 9.903 5.658 10.578 5.658 10.578C5.658 10.578 5.75925 13.1355 6.7695 13.641C7.779 14.1465 8.18325 15.1567 7.8795 16.2675C7.5765 17.379 7.5765 18.7942 8.28375 19.704C8.991 20.613 10.9117 20.5117 10.5075 19.704C10.1032 18.8955 9.4965 18.7943 9.71325 18.2887C9.9285 17.7832 11.9157 17.0753 12.2188 16.2675C12.5218 15.459 14.043 14.247 14.751 13.0343C15.459 11.8215 13.6842 10.398 12.5 10.5C11.318 10.6005 10.511 10.0837 9.5 9C8.489 7.91625 7.61 8.2975 6.5 8.5C5.39 8.70325 5.15325 8.69025 4.64775 7.4775C4.14225 6.26475 5.5575 7.07325 5.96175 5.742C6.366 4.41075 7.27425 5.45625 8.0535 5.65875C8.83275 5.86125 9.2955 5.75925 9.59925 4.64775C9.903 3.53625 11.7218 3.84 12.0248 3.132C12.3278 2.424 10.2052 3.23325 8.487 2.42475C8.20425 2.29125 8.07225 2.1345 8.043 1.968C9.26925 1.482 10.602 1.212 11.9993 1.212C15.6728 1.212 18.921 3.05925 20.8703 5.87175C20.6947 6.183 20.4735 6.4095 20.217 6.29625C19.575 6.01275 19.7332 6.915 19.0823 6.69825C18.429 6.48075 17.127 6.5895 16.8 7.56675C16.4745 8.5455 16.2172 8.988 17.061 9.84C17.9047 10.692 17.988 11.1097 17.988 11.6528C17.9895 12.1958 18.441 12.3878 19.2757 12.2205C20.1105 12.0533 20.8215 11.802 20.796 12.546C20.7713 13.29 20.0782 13.4063 20.622 13.9493C21.1642 14.493 21.8932 15.2618 20.4007 15.7552C18.9097 16.2472 18.7673 16.8412 18.918 17.8102C19.0658 18.7627 18.4432 19.095 19.428 19.8113C17.4915 21.6525 14.877 22.788 12 22.788C6.051 22.788 1.21275 17.9482 1.21275 12Z" fill="#1027EA"/>
</g>
</svg>