<svg width="24" height="24" viewBox="0 0 24 24" fill="none" xmlns="http://www.w3.org/2000/svg">
<g clip-path="url(#clip0_284_1765)">
<path d="M12 24.0039C18.6274 24.0039 24 18.6313 24 12.0039C24 5.37649 18.6274 0.00390625 12 0.00390625C5.37258 0.00390625 0 5.37649 0 12.0039C0 18.6313 5.37258 24.0039 12 24.0039Z" fill="#F0F0F0"/>
<path d="M21.4265 9.6559H17.4787C17.4787 8.93554 16.8947 8.35156 16.1744 8.35156L15.1309 10.4385C15.1309 10.4385 16.2439 13.569 16.2091 13.569H17.5135C18.2339 13.569 18.8178 12.985 18.8178 12.2646C19.5382 12.2646 20.1221 11.6807 20.1221 10.9603H20.0787C20.799 10.9602 21.4265 10.3763 21.4265 9.6559Z" fill="#ACABB1"/>
<path d="M2.57422 9.6559H6.52204C6.52204 8.93554 7.10601 8.35156 7.82637 8.35156L8.86987 10.4385C8.86987 10.4385 7.7568 13.569 7.79161 13.569H6.48727C5.76687 13.569 5.18294 12.985 5.18294 12.2646C4.46253 12.2646 3.8786 11.6807 3.8786 10.9603H3.92204C3.20164 10.9602 2.57422 10.3763 2.57422 9.6559V9.6559Z" fill="#ACABB1"/>
<path d="M16.1731 16.6997V17.2214H7.82523V16.6997H5.73828V18.7867H7.82523V19.3084H16.1731V18.7867H18.26V16.6997H16.1731Z" fill="#FFDA44"/>
<path d="M7.82617 8.3518V13.5691C7.82617 16.7641 12.0001 17.7431 12.0001 17.7431C12.0001 17.7431 16.174 16.7641 16.174 13.5691V8.3518L12.0001 7.83008L7.82617 8.3518Z" fill="#0052B4"/>
<path d="M7.82617 10.439H16.174V13.5694H7.82617V10.439Z" fill="#D80027"/>
<path d="M14.087 5.7432V6.52581L13.5653 6.7867L13.0436 6.26493V4.69971H10.9566V6.26493L10.4349 6.7867L9.91312 6.52581V5.7432H7.82617V8.35187H16.174V5.7432H14.087Z" fill="#FFDA44"/>
</g>
<defs>
<clipPath id="clip0_284_1765">
<rect width="24" height="24" fill="white" transform="translate(0 0.00390625)"/>
</clipPath>
</defs>
</svg>
