<svg width="24" height="24" viewBox="0 0 24 24" fill="none" xmlns="http://www.w3.org/2000/svg">
<g clip-path="url(#clip0_284_1655)">
<path d="M5.23633 21.9141C7.16223 23.2306 9.49084 24.0011 11.9998 24.0011C14.5087 24.0011 16.8374 23.2306 18.7632 21.9141L11.9998 20.8706L5.23633 21.9141Z" fill="#D80027"/>
<path d="M18.7632 2.08795C16.8374 0.771461 14.5087 0.000976562 11.9998 0.000976562C9.49084 0.000976562 7.16214 0.771461 5.23633 2.08795L11.9998 3.13143L18.7632 2.08795Z" fill="#D80027"/>
<path d="M5.23633 21.9141C7.16223 23.2306 9.49084 24.0011 11.9998 24.0011C14.5087 24.0011 16.8374 23.2306 18.7632 21.9141L11.9998 20.8706L5.23633 21.9141Z" fill="#D80027"/>
<path d="M18.7632 2.08795C16.8374 0.771461 14.5087 0.000976562 11.9998 0.000976562C9.49084 0.000976562 7.16214 0.771461 5.23633 2.08795L11.9998 3.13143L18.7632 2.08795Z" fill="#D80027"/>
<path d="M23.9696 11.2183C23.6853 7.51475 21.435 3.914 18.7636 2.08789H5.23672C2.27722 4.11106 0.269703 7.42456 0.0253906 11.2183L12.0002 12.001L23.9696 11.2183Z" fill="#0052B4"/>
<path d="M0.0253906 12.7836C0.269703 16.5774 2.27717 19.8909 5.23667 21.9141H18.7636C21.7232 19.8909 23.7306 16.5774 23.9749 12.7836L12.0002 12.001L0.0253906 12.7836Z" fill="#0052B4"/>
<path d="M23.9694 11.2185H12.7826V1.56641H11.2174V11.2185H0.0252656C0.008625 11.4773 0 11.7382 0 12.0012C0 12.2641 0.00857812 12.525 0.0252187 12.7838H11.2174V22.436H12.7826V12.7838H23.9748C23.9914 12.525 24 12.2641 24 12.0012C24 11.7402 23.9895 11.4791 23.9694 11.2185Z" fill="#D80027"/>
<path d="M4.69531 12.0012L11.9996 7.41016L19.304 12.0012L11.9996 16.5923L4.69531 12.0012Z" fill="#F0F0F0"/>
<path d="M7.82617 14.088H17.2174L15.1305 10.9575L14.087 12.001L13.0435 11.4793L12.0001 13.0445H9.91309L8.86961 12.001L7.82617 14.088Z" fill="#6DA544"/>
<path d="M11.9995 8.87061L12.2585 9.66772H13.0966L12.4185 10.1604L12.6775 10.9576L11.9995 10.4649L11.3214 10.9576L11.5804 10.1604L10.9023 9.66772H11.7404L11.9995 8.87061Z" fill="#FFDA44"/>
<path d="M12.0006 6.09814L2.60938 12.0009L12.0006 17.9037L21.392 12.0009L12.0006 6.09814ZM5.55069 12.0009L12.0006 7.94685L18.4507 12.0009L12.0006 16.055L5.55069 12.0009Z" fill="#D80027"/>
</g>
<defs>
<clipPath id="clip0_284_1655">
<rect width="24" height="24" fill="white" transform="translate(0 0.000976562)"/>
</clipPath>
</defs>
</svg>
