<svg width="24" height="25" viewBox="0 0 24 25" fill="none" xmlns="http://www.w3.org/2000/svg">
<g clip-path="url(#clip0_284_399)">
<path d="M12 24.0107C18.6274 24.0107 24 18.6382 24 12.0107C24 5.38332 18.6274 0.0107422 12 0.0107422C5.37258 0.0107422 0 5.38332 0 12.0107C0 18.6382 5.37258 24.0107 12 24.0107Z" fill="#F0F0F0"/>
<path d="M23.9994 12.0109C23.9994 7.25341 21.2307 3.14266 17.2168 1.20166V22.8202C21.2307 20.8792 23.9994 16.7685 23.9994 12.0109V12.0109Z" fill="#D80027"/>
<path d="M0 12.0109C0 16.7685 2.76867 20.8792 6.78262 22.8202V1.20166C2.76867 3.14266 0 7.25341 0 12.0109Z" fill="#D80027"/>
<path d="M14.087 13.5763L16.174 12.5328L15.1305 12.0111V10.9676L13.0435 12.0111L14.087 9.92409H13.0435L12.0001 8.35889L10.9566 9.92409H9.91309L10.9566 12.0111L8.86961 10.9676V12.0111L7.82617 12.5328L9.91309 13.5763L9.39138 14.6197H11.4783V16.1849H12.5218V14.6197H14.6088L14.087 13.5763Z" fill="#D80027"/>
</g>
<defs>
<clipPath id="clip0_284_399">
<rect width="24" height="24" fill="white" transform="translate(0 0.0107422)"/>
</clipPath>
</defs>
</svg>
