<svg width="24" height="24" viewBox="0 0 24 24" fill="none" xmlns="http://www.w3.org/2000/svg">
<g clip-path="url(#clip0_284_1753)">
<path d="M0 12.002C0 13.4699 0.264047 14.8759 0.746391 16.1759L12 17.2194L23.2536 16.1759C23.736 14.8759 24 13.4699 24 12.002C24 10.5342 23.736 9.12814 23.2536 7.82815L12 6.78467L0.746391 7.82815C0.264047 9.12814 0 10.5342 0 12.002H0Z" fill="#FFDA44"/>
<path d="M23.2533 7.82806C21.5578 3.2585 17.1593 0.00195312 11.9997 0.00195312C6.84012 0.00195312 2.44161 3.2585 0.746094 7.82806H23.2533Z" fill="#D80027"/>
<path d="M0.746094 16.1758C2.44161 20.7453 6.84012 24.0019 11.9997 24.0019C17.1593 24.0019 21.5578 20.7453 23.2533 16.1758H0.746094Z" fill="#D80027"/>
</g>
<defs>
<clipPath id="clip0_284_1753">
<rect width="24" height="24" fill="white" transform="translate(0 0.00195312)"/>
</clipPath>
</defs>
</svg>