<svg width="24" height="24" viewBox="0 0 24 24" fill="none" xmlns="http://www.w3.org/2000/svg">
<g clip-path="url(#clip0_284_763)">
<path d="M12 24.002C18.6274 24.002 24 18.6294 24 12.002C24 5.37454 18.6274 0.00195312 12 0.00195312C5.37258 0.00195312 0 5.37454 0 12.002C0 18.6294 5.37258 24.002 12 24.002Z" fill="#F0F0F0"/>
<path d="M23.9999 12.0021C23.9999 6.84257 20.7434 2.44405 16.1738 0.748535V23.2558C20.7434 21.5602 23.9999 17.1617 23.9999 12.0021V12.0021Z" fill="#D80027"/>
<path d="M0 12.0021C0 17.1617 3.25655 21.5602 7.82611 23.2558V0.748535C3.25655 2.44405 0 6.84257 0 12.0021Z" fill="#0052B4"/>
</g>
<defs>
<clipPath id="clip0_284_763">
<rect width="24" height="24" fill="white" transform="translate(0 0.00195312)"/>
</clipPath>
</defs>
</svg>
