<svg width="24" height="24" viewBox="0 0 24 24" fill="none" xmlns="http://www.w3.org/2000/svg">
<g clip-path="url(#clip0_284_778)">
<path d="M23.2536 16.1759C23.736 14.876 24 13.4699 24 12.002C24 10.5342 23.736 9.12818 23.2536 7.82815L12 6.78467L0.746391 7.82815C0.264047 9.12818 0 10.5342 0 12.002C0 13.4699 0.264047 14.876 0.746391 16.1759L12 17.2194L23.2536 16.1759Z" fill="#FFDA44"/>
<path d="M11.9997 24.0019C17.1593 24.0019 21.5578 20.7454 23.2533 16.1758H0.746094C2.44166 20.7454 6.84012 24.0019 11.9997 24.0019Z" fill="#0052B4"/>
<path d="M11.9998 0.00195312C6.84013 0.00195312 2.44166 3.25845 0.746094 7.82806H23.2534C21.5578 3.25845 17.1593 0.00195312 11.9998 0.00195312Z" fill="#6DA544"/>
</g>
<defs>
<clipPath id="clip0_284_778">
<rect width="24" height="24" fill="white" transform="translate(0 0.00195312)"/>
</clipPath>
</defs>
</svg>
