<svg width="24" height="24" viewBox="0 0 24 24" fill="none" xmlns="http://www.w3.org/2000/svg">
<g clip-path="url(#clip0_304_43)">
<path d="M12 24C18.6274 24 24 18.6274 24 12C24 5.37258 18.6274 0 12 0C5.37258 0 0 5.37258 0 12C0 18.6274 5.37258 24 12 24Z" fill="#D80027"/>
<path d="M3.51497 3.52019C8.20123 -1.16607 15.7993 -1.16607 20.4855 3.52019C25.1718 8.20645 25.1718 15.8045 20.4855 20.4907C20.1166 20.1218 10.8935 13.1122 10.8935 13.1122L3.51497 3.52019Z" fill="#6DA544"/>
<path d="M20.4851 20.4911C15.7989 25.1774 8.20084 25.1774 3.51458 20.4911C-1.17168 15.8049 -1.17168 8.20684 3.51458 3.52058" fill="#FFDA44"/>
<path d="M11.9995 6.26074L13.2946 10.2465H17.4855L14.095 12.7098L15.39 16.6955L11.9995 14.2322L8.60908 16.6955L9.90414 12.7098L6.51367 10.2465H10.7045L11.9995 6.26074Z" fill="#D80027"/>
</g>
<defs>
<clipPath id="clip0_304_43">
<rect width="24" height="24" fill="white"/>
</clipPath>
</defs>
</svg>
