<svg width="24" height="24" viewBox="0 0 24 24" fill="none" xmlns="http://www.w3.org/2000/svg">
<g clip-path="url(#clip0_344_88)">
<path d="M12 24C18.6274 24 24 18.6274 24 12C24 5.37258 18.6274 0 12 0C5.37258 0 0 5.37258 0 12C0 18.6274 5.37258 24 12 24Z" fill="#E33123"/>
<mask id="mask0_344_88" style="mask-type:alpha" maskUnits="userSpaceOnUse" x="0" y="0" width="24" height="24">
<path d="M12 24C18.6274 24 24 18.6274 24 12C24 5.37258 18.6274 0 12 0C5.37258 0 0 5.37258 0 12C0 18.6274 5.37258 24 12 24Z" fill="#E33123"/>
</mask>
<g mask="url(#mask0_344_88)">
<path d="M12 9.94146e-07C6.49822 5.13169e-07 1.80792 3.74496 4.66792e-07 9L24 9C22.192 3.74497 17.5018 1.47513e-06 12 9.94146e-07Z" fill="#03147C"/>
</g>
<path d="M6.00069 8C5.7355 7.59763 5.80614 7.1522 5.80614 7.1522C5.80614 7.1522 5.53806 7.42044 5.34698 7.26867C5.15591 7.1169 5.32672 6.90089 5.32672 6.90089C5.41878 7.07313 5.52011 7.01031 5.5699 6.89665C5.62375 6.77312 5.65386 6.65876 5.65039 6.4964C5.64344 6.17591 5.46626 5.53283 4.90462 5.48341C4.15364 5.41776 4.27697 6.12509 4.27697 6.12509C4.27697 6.12509 3.84213 5.84202 4.06215 5.25328C4.16406 4.98009 4.38872 4.90032 4.60006 4.89256C4.91562 4.88127 5.21439 5.03586 5.41473 5.29493C5.56875 5.49471 5.73492 5.81378 5.80846 6.25004H5.8652C5.8652 5.95143 5.83104 5.63165 5.79746 5.42976C5.75924 5.20104 5.74071 5.15304 5.55775 4.54384C5.37478 3.93393 5.61044 3.62685 5.61044 3.62685L6.00011 3L6.38979 3.62685C6.38979 3.62685 6.62545 3.93393 6.44248 4.54384C6.25951 5.15375 6.24098 5.20175 6.20277 5.42976C6.16918 5.63165 6.13502 5.95143 6.13502 6.25004H6.19177C6.2653 5.81307 6.43148 5.494 6.58549 5.29493C6.78583 5.03586 7.08518 4.88127 7.40017 4.89256C7.61151 4.90032 7.83616 4.98009 7.93807 5.25328C8.15752 5.84131 7.72326 6.12509 7.72326 6.12509C7.72326 6.12509 7.84659 5.41847 7.09561 5.48341C6.53396 5.53212 6.35736 6.17591 6.34984 6.4964C6.34636 6.65947 6.37647 6.77382 6.43032 6.89665C6.48011 7.01031 6.58202 7.07313 6.6735 6.90089C6.6735 6.90089 6.84431 7.1169 6.65324 7.26867C6.46216 7.42044 6.19408 7.1522 6.19408 7.1522C6.19408 7.1522 6.26472 7.59763 5.99953 8H6.00069Z" fill="#EFC644"/>
<path d="M12.0007 8C11.7355 7.59763 11.8061 7.1522 11.8061 7.1522C11.8061 7.1522 11.5381 7.42044 11.347 7.26867C11.1559 7.1169 11.3267 6.90089 11.3267 6.90089C11.4188 7.07313 11.5201 7.01031 11.5699 6.89665C11.6238 6.77312 11.6539 6.65876 11.6504 6.4964C11.6434 6.17591 11.4663 5.53283 10.9046 5.48341C10.1536 5.41776 10.277 6.12509 10.277 6.12509C10.277 6.12509 9.84213 5.84202 10.0622 5.25328C10.1641 4.98009 10.3887 4.90032 10.6001 4.89256C10.9156 4.88127 11.2144 5.03586 11.4147 5.29493C11.5687 5.49471 11.7349 5.81378 11.8085 6.25004H11.8652C11.8652 5.95143 11.831 5.63165 11.7975 5.42976C11.7592 5.20104 11.7407 5.15304 11.5577 4.54384C11.3748 3.93393 11.6104 3.62685 11.6104 3.62685L12.0001 3L12.3898 3.62685C12.3898 3.62685 12.6254 3.93393 12.4425 4.54384C12.2595 5.15375 12.241 5.20175 12.2028 5.42976C12.1692 5.63165 12.135 5.95143 12.135 6.25004H12.1918C12.2653 5.81307 12.4315 5.494 12.5855 5.29493C12.7858 5.03586 13.0852 4.88127 13.4002 4.89256C13.6115 4.90032 13.8362 4.98009 13.9381 5.25328C14.1575 5.84131 13.7233 6.12509 13.7233 6.12509C13.7233 6.12509 13.8466 5.41847 13.0956 5.48341C12.534 5.53212 12.3574 6.17591 12.3498 6.4964C12.3464 6.65947 12.3765 6.77382 12.4303 6.89665C12.4801 7.01031 12.582 7.07313 12.6735 6.90089C12.6735 6.90089 12.8443 7.1169 12.6532 7.26867C12.4622 7.42044 12.1941 7.1522 12.1941 7.1522C12.1941 7.1522 12.2647 7.59763 11.9995 8H12.0007Z" fill="#EFC644"/>
<path d="M18.0007 8C17.7355 7.59763 17.8061 7.1522 17.8061 7.1522C17.8061 7.1522 17.5381 7.42044 17.347 7.26867C17.1559 7.1169 17.3267 6.90089 17.3267 6.90089C17.4188 7.07313 17.5201 7.01031 17.5699 6.89665C17.6238 6.77312 17.6539 6.65876 17.6504 6.4964C17.6434 6.17591 17.4663 5.53283 16.9046 5.48341C16.1536 5.41776 16.277 6.12509 16.277 6.12509C16.277 6.12509 15.8421 5.84202 16.0622 5.25328C16.1641 4.98009 16.3887 4.90032 16.6001 4.89256C16.9156 4.88127 17.2144 5.03586 17.4147 5.29493C17.5687 5.49471 17.7349 5.81378 17.8085 6.25004H17.8652C17.8652 5.95143 17.831 5.63165 17.7975 5.42976C17.7592 5.20104 17.7407 5.15304 17.5577 4.54384C17.3748 3.93393 17.6104 3.62685 17.6104 3.62685L18.0001 3L18.3898 3.62685C18.3898 3.62685 18.6254 3.93393 18.4425 4.54384C18.2595 5.15375 18.241 5.20175 18.2028 5.42976C18.1692 5.63165 18.135 5.95143 18.135 6.25004H18.1918C18.2653 5.81307 18.4315 5.494 18.5855 5.29493C18.7858 5.03586 19.0852 4.88127 19.4002 4.89256C19.6115 4.90032 19.8362 4.98009 19.9381 5.25328C20.1575 5.84131 19.7233 6.12509 19.7233 6.12509C19.7233 6.12509 19.8466 5.41847 19.0956 5.48341C18.534 5.53212 18.3574 6.17591 18.3498 6.4964C18.3464 6.65947 18.3765 6.77382 18.4303 6.89665C18.4801 7.01031 18.582 7.07313 18.6735 6.90089C18.6735 6.90089 18.8443 7.1169 18.6532 7.26867C18.4622 7.42044 18.1941 7.1522 18.1941 7.1522C18.1941 7.1522 18.2647 7.59763 17.9995 8H18.0007Z" fill="#EFC644"/>
<rect x="5" y="13.8994" width="3" height="14.3227" transform="rotate(-63.2822 5 13.8994)" fill="#45912A"/>
<path d="M16.6426 15.5L14.5995 16.4092L15.6875 18.2812L13.469 17.8797L13.1878 20L11.6426 18.4405L10.0973 20L9.8162 17.8797L7.59768 18.2811L8.68558 16.4092L6.64258 15.5L8.68564 14.5908L7.59768 12.7188L9.81614 13.1203L10.0973 11L11.6426 12.5595L13.1879 11L13.469 13.1203L15.6875 12.7188L14.5996 14.5909L16.6426 15.5Z" fill="#ECCA45"/>
</g>
<defs>
<clipPath id="clip0_344_88">
<rect width="24" height="24" fill="white"/>
</clipPath>
</defs>
</svg>