<svg width="24" height="24" viewBox="0 0 24 24" fill="none" xmlns="http://www.w3.org/2000/svg">
<g clip-path="url(#clip0_284_861)">
<path d="M12 24.0029C18.6274 24.0029 24 18.6303 24 12.0029C24 5.37551 18.6274 0.00292969 12 0.00292969C5.37258 0.00292969 0 5.37551 0 12.0029C0 18.6303 5.37258 24.0029 12 24.0029Z" fill="#F0F0F0"/>
<path d="M23.9994 12.0031C23.9994 7.2456 21.2307 3.13485 17.2168 1.19385V22.8124C21.2307 20.8714 23.9994 16.7606 23.9994 12.0031V12.0031Z" fill="#338AF3"/>
<path d="M0 12.0031C0 16.7606 2.76867 20.8714 6.78262 22.8124V1.19385C2.76867 3.13485 0 7.2456 0 12.0031Z" fill="#338AF3"/>
<path d="M15.135 14.0322L13.106 12.0031L15.0374 10.0717L14.9499 9.05157L14.3969 8.49854L11.9992 10.8963L9.60142 8.49854L9.04848 9.05157L8.96097 10.0717L10.8924 12.0031L8.86328 14.0322L9.97009 15.1389L11.9992 13.1099L14.0282 15.1389L15.135 14.0322Z" fill="#ACABB1"/>
<path d="M14.9515 9.05176L13.8447 10.1585C14.3168 10.6306 14.6088 11.2828 14.6088 12.0031C14.6088 13.4439 13.4408 14.6118 12.0001 14.6118C10.5594 14.6118 9.39138 13.4439 9.39138 12.0031C9.39138 11.2828 9.68341 10.6306 10.1555 10.1585L9.04872 9.05176C8.29333 9.80701 7.82617 10.8505 7.82617 12.0031C7.82617 14.3084 9.69489 16.177 12.0001 16.177C14.3052 16.177 16.174 14.3083 16.174 12.0031C16.174 10.8505 15.7068 9.80705 14.9515 9.05176V9.05176Z" fill="#6DA544"/>
</g>
<defs>
<clipPath id="clip0_284_861">
<rect width="24" height="24" fill="white" transform="translate(0 0.00292969)"/>
</clipPath>
</defs>
</svg>
