<svg width="24" height="24" viewBox="0 0 24 24" fill="none" xmlns="http://www.w3.org/2000/svg">
<g clip-path="url(#clip0_284_907)">
<path d="M12 24.0039C18.6274 24.0039 24 18.6313 24 12.0039C24 5.37649 18.6274 0.00390625 12 0.00390625C5.37258 0.00390625 0 5.37649 0 12.0039C0 18.6313 5.37258 24.0039 12 24.0039Z" fill="#F0F0F0"/>
<path d="M12.0007 24.0038C16.7582 24.0038 20.869 21.2351 22.81 17.2212H1.19141C3.13241 21.2351 7.24316 24.0038 12.0007 24.0038Z" fill="#338AF3"/>
<path d="M12.0007 0.00390625C7.24316 0.00390625 3.13241 2.77258 1.19141 6.78653H22.8099C20.869 2.77258 16.7582 0.00390625 12.0007 0.00390625V0.00390625Z" fill="#338AF3"/>
<path d="M7.38602 7.83008L7.77452 9.02581H9.03175L8.01466 9.76475L8.4032 10.9605L7.38602 10.2215L6.36883 10.9605L6.75738 9.76475L5.74023 9.02581H6.99747L7.38602 7.83008Z" fill="#338AF3"/>
<path d="M7.38602 13.0474L7.77452 14.2431H9.03175L8.01466 14.9821L8.4032 16.1778L7.38602 15.4388L6.36883 16.1778L6.75738 14.9821L5.74023 14.2431H6.99747L7.38602 13.0474Z" fill="#338AF3"/>
<path d="M16.6165 7.83008L17.005 9.02581H18.2623L17.2451 9.76475L17.6337 10.9605L16.6165 10.2215L15.5993 10.9605L15.9878 9.76475L14.9707 9.02581H16.228L16.6165 7.83008Z" fill="#338AF3"/>
<path d="M16.6165 13.0474L17.005 14.2431H18.2623L17.2451 14.9821L17.6337 16.1778L16.6165 15.4388L15.5993 16.1778L15.9878 14.9821L14.9707 14.2431H16.228L16.6165 13.0474Z" fill="#338AF3"/>
<path d="M12.0013 10.4385L12.3898 11.6343H13.647L12.6299 12.3732L13.0184 13.5689L12.0013 12.8299L10.9841 13.5689L11.3726 12.3732L10.3555 11.6343H11.6127L12.0013 10.4385Z" fill="#338AF3"/>
</g>
<defs>
<clipPath id="clip0_284_907">
<rect width="24" height="24" fill="white" transform="translate(0 0.00390625)"/>
</clipPath>
</defs>
</svg>
