<svg width="24" height="24" viewBox="0 0 24 24" fill="none" xmlns="http://www.w3.org/2000/svg">
<g clip-path="url(#clip0_284_556)">
<path d="M24 12.0008C24 10.533 23.736 9.12688 23.2536 7.82694L12 7.30518L0.746391 7.82689C0.264047 9.12688 0 10.533 0 12.0008C0 13.4687 0.264047 14.8748 0.746391 16.1747L12 16.6965L23.2536 16.1748C23.736 14.8748 24 13.4687 24 12.0008Z" fill="#F0F0F0"/>
<path d="M11.9997 24.0009C17.1593 24.0009 21.5578 20.7444 23.2533 16.1748H0.746094C2.44161 20.7444 6.84012 24.0009 11.9997 24.0009Z" fill="#0052B4"/>
<path d="M0.746094 7.82709H23.2534C21.5578 3.25748 17.1593 0.000976562 11.9997 0.000976562C6.84012 0.000976562 2.44161 3.25748 0.746094 7.82709V7.82709Z" fill="#D80027"/>
<path d="M15.1299 8.349H13.043L13.3908 5.74026L14.7821 4.69678L16.1734 5.74026V7.82723L15.1299 8.349Z" fill="#338AF3"/>
<path d="M8.86961 8.349H10.9566L10.6087 5.74026L9.21742 4.69678L7.82617 5.74026V7.82723L8.86961 8.349Z" fill="#338AF3"/>
<path d="M13.3921 8.349H10.6094V5.74026L12.0007 4.69678L13.3921 5.74026V8.349Z" fill="#0052B4"/>
<path d="M7.82617 7.82715V13.5662C7.82617 14.9328 8.48627 16.1481 9.50439 16.9099L10.2348 16.7272L11.1566 17.6544C11.4292 17.7106 11.7112 17.7402 12.0001 17.7402C12.2875 17.7402 12.5681 17.711 12.8392 17.6554L13.8914 16.7793L14.4957 16.9082C15.5134 16.1464 16.174 14.9324 16.174 13.5662V7.82715H7.82617Z" fill="#F0F0F0"/>
<path d="M7.82617 7.82715H9.49572V9.4967H7.82617V7.82715Z" fill="#D80027"/>
<path d="M11.166 7.82715H12.8356V9.4967H11.166V7.82715Z" fill="#D80027"/>
<path d="M14.5039 7.82715H16.1735V9.4967H14.5039V7.82715Z" fill="#D80027"/>
<path d="M9.49609 9.49658H11.1656V11.1661H9.49609V9.49658Z" fill="#D80027"/>
<path d="M12.834 9.49658H14.5035V11.1661H12.834V9.49658Z" fill="#D80027"/>
<path d="M7.82617 11.1655H9.49572V12.8351H7.82617V11.1655Z" fill="#D80027"/>
<path d="M9.49609 12.8354H11.1656V14.505H9.49609V12.8354Z" fill="#D80027"/>
<path d="M11.166 11.1655H12.8356V12.8351H11.166V11.1655Z" fill="#D80027"/>
<path d="M14.5039 11.1655H16.1735V12.8351H14.5039V11.1655Z" fill="#D80027"/>
<path d="M12.834 12.8354H14.5035V14.505H12.834V12.8354Z" fill="#D80027"/>
<path d="M11.166 14.5049H12.8356V16.1744H11.166V14.5049Z" fill="#D80027"/>
<path d="M9.49542 14.5049H7.93359C8.07684 15.1255 8.35847 15.6934 8.74463 16.1744H9.49542V14.5049Z" fill="#D80027"/>
<path d="M14.5039 16.1744H15.2547C15.6409 15.6934 15.9224 15.1255 16.0657 14.5049H14.5039V16.1744Z" fill="#D80027"/>
<path d="M9.49609 16.1748V16.9033C9.98167 17.2687 10.5491 17.5307 11.1656 17.6564V16.1748H9.49609Z" fill="#D80027"/>
<path d="M12.834 16.1748V17.6564C13.4505 17.5308 14.018 17.2687 14.5035 16.9033V16.1748H12.834Z" fill="#D80027"/>
</g>
<defs>
<clipPath id="clip0_284_556">
<rect width="24" height="24" fill="white" transform="translate(0 0.000976562)"/>
</clipPath>
</defs>
</svg>
