<svg width="24" height="24" viewBox="0 0 24 24" fill="none" xmlns="http://www.w3.org/2000/svg">
<g clip-path="url(#clip0_284_964)">
<path d="M12 24.0049C18.6274 24.0049 24 18.6323 24 12.0049C24 5.37747 18.6274 0.00488281 12 0.00488281C5.37258 0.00488281 0 5.37747 0 12.0049C0 18.6323 5.37258 24.0049 12 24.0049Z" fill="#D80027"/>
<path d="M16.4437 8.04929L15.5955 11.0761L13.0507 10.6061L11.4126 7.22949L6.98727 8.79985L6.63828 7.81641L5.48047 7.67377L6.35286 10.1323L9.39828 9.35349L10.2637 11.7924L8.15848 14.8993L11.7312 17.9465L11.054 18.7404L11.5093 19.8145L13.2024 17.8296L11.0052 15.5816L12.6845 13.6127L16.4279 13.8825L17.2805 9.2648L18.3066 9.45432L19.0093 8.52291L16.4437 8.04929Z" fill="#F0F0F0"/>
</g>
<defs>
<clipPath id="clip0_284_964">
<rect width="24" height="24" fill="white" transform="translate(0 0.00488281)"/>
</clipPath>
</defs>
</svg>