<svg width="24" height="24" viewBox="0 0 24 24" fill="none" xmlns="http://www.w3.org/2000/svg">
<g clip-path="url(#clip0_284_1758)">
<path d="M12 24.0029C18.6274 24.0029 24 18.6303 24 12.0029C24 5.3755 18.6274 0.00292969 12 0.00292969C5.37257 0.00292969 0 5.3755 0 12.0029C0 18.6303 5.37257 24.0029 12 24.0029Z" fill="#FFDA44"/>
<path d="M9.3915 2.08984H5.23672C5.0526 2.2157 4.87241 2.34672 4.69583 2.48233L3.65234 12.0028L4.69583 21.5234C4.87241 21.659 5.0526 21.79 5.23672 21.9159H9.3915V2.08984Z" fill="#FF9811"/>
<path d="M0 12.003C0 15.8817 1.84069 19.3299 4.69567 21.5235V2.48242C1.84069 4.67608 0 8.12431 0 12.003V12.003Z" fill="#6DA544"/>
<path d="M19.3047 7.31836V7.61859L19.3158 7.62028L19.3047 7.31836Z" fill="#FFDA44"/>
<path d="M23.044 15.1333H20.7831L19.8266 16.1768V18.2638H17.7396V17.2203H18.7831V15.1333H14.0874V16.4377H13.044V13.9518C12.7238 13.6652 12.5222 13.2489 12.5222 12.7855V6.00288C12.5222 5.13846 13.223 4.43768 14.0874 4.43768V14.0899H16.1744L16.8905 13.4931C16.7654 13.1952 16.6961 12.8681 16.6961 12.5247V10.9595H15.1309V7.82904H18.2613C18.2613 7.30732 19.044 6.78556 19.044 6.78556C19.044 6.78556 19.8266 7.30728 19.8266 7.82904V8.61167V10.9595C20.407 10.9664 21.3293 10.9513 22.3256 10.9595C22.0639 10.502 21.9135 9.95914 21.9135 9.3943C21.9135 8.47362 22.311 7.6459 22.9437 7.07309C22.0317 5.05207 20.5765 3.32885 18.7639 2.08984H10.957V21.9159H18.764C20.968 20.4093 22.6437 18.1869 23.4567 15.5836L23.044 15.1333Z" fill="#A2001D"/>
</g>
<defs>
<clipPath id="clip0_284_1758">
<rect width="24" height="24" fill="white" transform="translate(0 0.00292969)"/>
</clipPath>
</defs>
</svg>