<svg width="24" height="25" viewBox="0 0 24 25" fill="none" xmlns="http://www.w3.org/2000/svg">
<g clip-path="url(#clip0_284_1408)">
<path d="M12 24.0107C18.6274 24.0107 24 18.6382 24 12.0107C24 5.38332 18.6274 0.0107422 12 0.0107422C5.37258 0.0107422 0 5.38332 0 12.0107C0 18.6382 5.37258 24.0107 12 24.0107Z" fill="#F0F0F0"/>
<path d="M0 12.0106C0 16.5592 2.53078 20.5164 6.26086 22.5516V1.46973C2.53078 3.50495 0 7.46213 0 12.0106Z" fill="#D80027"/>
<path d="M23.2537 16.1847C23.736 14.8847 24 13.4786 24 12.0108C24 10.543 23.736 9.13685 23.2537 7.83691H0.746437C0.264047 9.13685 0 10.543 0 12.0108C0 13.4786 0.264047 14.8847 0.746437 16.1847L12 17.2282L23.2537 16.1847Z" fill="#D80027"/>
<path d="M11.9997 24.0107C17.1593 24.0107 21.5577 20.7542 23.2533 16.1846H0.746094C2.44156 20.7542 6.84012 24.0107 11.9997 24.0107V24.0107Z" fill="#6DA544"/>
<path d="M0 12.0109C0 17.5553 3.76036 22.2205 8.86955 23.5975V0.424316C3.76036 1.80132 0 6.4666 0 12.0109Z" fill="#D80027"/>
<path d="M7.34159 5.29134L6.23483 4.18457L5.49702 4.92248L4.7592 4.18457L3.65244 5.29134L4.3903 6.0292L3.65234 6.7671L4.75911 7.87387L5.49697 7.13596L6.23483 7.87387L7.34159 6.7671L6.60373 6.0292L7.34159 5.29134Z" fill="#F0F0F0"/>
</g>
<defs>
<clipPath id="clip0_284_1408">
<rect width="24" height="24" fill="white" transform="translate(0 0.0107422)"/>
</clipPath>
</defs>
</svg>