<svg width="24" height="25" viewBox="0 0 24 25" fill="none" xmlns="http://www.w3.org/2000/svg">
<g clip-path="url(#clip0_284_1428)">
<path d="M12 24.0107C18.6274 24.0107 24 18.6382 24 12.0107C24 5.38332 18.6274 0.0107422 12 0.0107422C5.37258 0.0107422 0 5.38332 0 12.0107C0 18.6382 5.37258 24.0107 12 24.0107Z" fill="#F0F0F0"/>
<path d="M0 12.0106C0 16.5592 2.53073 20.5163 6.26086 22.5516V1.46973C2.53073 3.50499 0 7.46213 0 12.0106Z" fill="#F0F0F0"/>
<path d="M12.0009 0.0107422C9.92195 0.0107422 7.96661 0.539633 6.26172 1.46982V22.5516C7.96661 23.4819 9.92195 24.0107 12.0009 24.0107C18.6282 24.0107 24.0009 18.6381 24.0009 12.0107C24.0009 5.38337 18.6282 0.0107422 12.0009 0.0107422Z" fill="#496E2D"/>
<path d="M17.1297 13.9952C15.6116 15.0921 13.4916 14.7507 12.3947 13.2326C11.2978 11.7144 11.6392 9.59449 13.1574 8.49761C13.6307 8.15561 14.1626 7.95344 14.7037 7.88317C13.6627 7.7275 12.5623 7.96206 11.6418 8.62717C9.77339 9.97727 9.35306 12.5864 10.7031 14.4549C12.0532 16.3233 14.6623 16.7437 16.5308 15.3935C17.4514 14.7284 18.0196 13.7575 18.1986 12.7202C17.962 13.2117 17.6031 13.6532 17.1297 13.9952V13.9952Z" fill="#F0F0F0"/>
<path d="M17.0649 7.83691L17.9201 8.75852L19.0609 8.23015L18.4485 9.32815L19.3037 10.2499L18.0701 10.0068L17.4578 11.1049L17.3078 9.85662L16.0742 9.61357L17.215 9.0852L17.0649 7.83691Z" fill="#F0F0F0"/>
</g>
<defs>
<clipPath id="clip0_284_1428">
<rect width="24" height="24" fill="white" transform="translate(0 0.0107422)"/>
</clipPath>
</defs>
</svg>