<svg width="24" height="24" viewBox="0 0 24 24" fill="none" xmlns="http://www.w3.org/2000/svg">
<g clip-path="url(#clip0_284_1635)">
<path d="M12 24.001C18.6274 24.001 24 18.6284 24 12.001C24 5.37356 18.6274 0.000976562 12 0.000976562C5.37258 0.000976562 0 5.37356 0 12.001C0 18.6284 5.37258 24.001 12 24.001Z" fill="#F0F0F0"/>
<path d="M20.0996 3.14802C17.9649 1.19371 15.1214 0.000976562 11.9992 0.000976562C11.488 0.000976562 10.9844 0.0331797 10.49 0.0951953L4.69483 6.7836L0.378906 15.0071C0.657719 16.0881 1.084 17.1097 1.63398 18.0501L11.9992 12.001L20.0996 3.14802Z" fill="#FFDA44"/>
<path d="M21.9903 18.6494L5.20117 21.8894C7.13378 23.2207 9.47556 24.0008 11.9998 24.0008C16.168 24.0008 19.8392 21.8753 21.9903 18.6494V18.6494Z" fill="#6DA544"/>
<path d="M20.103 3.14941L1.64258 18.0615C2.12544 18.885 2.70355 19.6459 3.362 20.3288L24.0009 12.0008C24.0009 8.49645 22.4985 5.34326 20.103 3.14941V3.14941Z" fill="#D80027"/>
<path d="M0 12.001C0 13.0391 0.131906 14.0464 0.379734 15.0071L10.4909 0.0952148C4.57584 0.837434 0 5.88475 0 12.001Z" fill="#0052B4"/>
</g>
<defs>
<clipPath id="clip0_284_1635">
<rect width="24" height="24" fill="white" transform="translate(0 0.000976562)"/>
</clipPath>
</defs>
</svg>
