<svg width="24" height="24" viewBox="0 0 24 24" fill="none" xmlns="http://www.w3.org/2000/svg">
<g clip-path="url(#clip0_284_1814)">
<path d="M12 24.002C18.6274 24.002 24 18.6294 24 12.002C24 5.37454 18.6274 0.00195312 12 0.00195312C5.37258 0.00195312 0 5.37454 0 12.002C0 18.6294 5.37258 24.002 12 24.002Z" fill="#FFDA44"/>
<path d="M9.39067 10.4367H23.8977C23.1307 4.54892 18.0962 0.00195312 11.9993 0.00195312C11.1033 0.00195312 10.2306 0.101 9.39062 0.287188V10.4367H9.39067Z" fill="#0052B4"/>
<path d="M6.26084 10.4366V1.46094C2.96581 3.25878 0.607016 6.55648 0.101562 10.4367H6.26084V10.4366Z" fill="#0052B4"/>
<path d="M6.2608 13.5674H0.101562C0.607016 17.4476 2.96581 20.7453 6.26084 22.5431L6.2608 13.5674Z" fill="#0052B4"/>
<path d="M9.39062 13.5674V23.7169C10.2306 23.9031 11.1033 24.0022 11.9993 24.0022C18.0962 24.0022 23.1307 19.4552 23.8977 13.5674H9.39062V13.5674Z" fill="#0052B4"/>
</g>
<defs>
<clipPath id="clip0_284_1814">
<rect width="24" height="24" fill="white" transform="translate(0 0.00195312)"/>
</clipPath>
</defs>
</svg>
