<svg width="24" height="24" viewBox="0 0 24 24" fill="none" xmlns="http://www.w3.org/2000/svg">
<g clip-path="url(#clip0_284_1680)">
<path d="M12 24.0029C18.6274 24.0029 24 18.6303 24 12.0029C24 5.37551 18.6274 0.00292969 12 0.00292969C5.37258 0.00292969 0 5.37551 0 12.0029C0 18.6303 5.37258 24.0029 12 24.0029Z" fill="#F0F0F0"/>
<path d="M12 24.003C18.6274 24.003 24 18.6304 24 12.003C24 10.5351 23.736 9.12904 23.2536 7.8291H0.746391C0.264047 9.12904 0 10.5351 0 12.003C0 18.6304 5.37262 24.003 12 24.003Z" fill="#0052B4"/>
<path d="M11.9997 24.0029C17.1593 24.0029 21.5578 20.7464 23.2533 16.1768H0.746094C2.44161 20.7464 6.84012 24.0029 11.9997 24.0029Z" fill="#D80027"/>
<path d="M3.10352 6.78564V12.7719C3.10352 16.1771 7.552 17.2204 7.552 17.2204C7.552 17.2204 12.0004 16.1771 12.0004 12.7719V6.78564H3.10352Z" fill="#F0F0F0"/>
<path d="M4.14648 6.78564V12.7719C4.14648 13.1716 4.23527 13.5491 4.41114 13.9031H10.6918C10.8677 13.5492 10.9564 13.1716 10.9564 12.7719V6.78564H4.14648Z" fill="#D80027"/>
<path d="M9.63873 10.9595H8.07358V9.91602H9.11706V8.87254H8.07358V7.8291H7.03009V8.87254H5.98666V9.91602H7.03009V10.9595H5.46484V12.003H7.03009V13.0465H8.07358V12.003H9.63873V10.9595Z" fill="#F0F0F0"/>
<path d="M5.83537 15.3599C6.5078 15.7824 7.19864 16.0278 7.55231 16.1369C7.90598 16.0278 8.59683 15.7824 9.26925 15.3599C9.94734 14.9337 10.4227 14.4463 10.6926 13.9032C10.3949 13.6926 10.0317 13.5684 9.63928 13.5684C9.49641 13.5684 9.35761 13.5853 9.22416 13.6164C8.94136 12.9738 8.29941 12.5249 7.55236 12.5249C6.80531 12.5249 6.16331 12.9738 5.88056 13.6164C5.74711 13.5853 5.60827 13.5684 5.46544 13.5684C5.07305 13.5684 4.70981 13.6926 4.41211 13.9032C4.68188 14.4462 5.15723 14.9336 5.83537 15.3599Z" fill="#0052B4"/>
</g>
<defs>
<clipPath id="clip0_284_1680">
<rect width="24" height="24" fill="white" transform="translate(0 0.00292969)"/>
</clipPath>
</defs>
</svg>
