<svg width="24" height="24" viewBox="0 0 24 24" fill="none" xmlns="http://www.w3.org/2000/svg">
<g clip-path="url(#clip0_284_1855)">
<path d="M12 24.0049C18.6274 24.0049 24 18.6323 24 12.0049C24 5.37747 18.6274 0.00488281 12 0.00488281C5.37258 0.00488281 0 5.37747 0 12.0049C0 18.6323 5.37258 24.0049 12 24.0049Z" fill="#F0F0F0"/>
<path d="M23.2536 7.83105H0.746391C0.264 9.13104 0 10.5371 0 12.0049C0 13.4728 0.264 14.8789 0.746391 16.1788H23.2537C23.736 14.8789 24 13.4728 24 12.0049C24 10.5371 23.736 9.13104 23.2536 7.83105Z" fill="#0052B4"/>
<path d="M12.0009 0.00488281C8.36383 0.00488281 5.10494 1.6232 2.9043 4.17877H21.0975C18.8969 1.6232 15.638 0.00488281 12.0009 0.00488281V0.00488281Z" fill="#D80027"/>
<path d="M21.0975 19.8311H2.9043C5.10494 22.3866 8.36383 24.0049 12.0009 24.0049C15.638 24.0049 18.8969 22.3866 21.0975 19.8311Z" fill="#D80027"/>
</g>
<defs>
<clipPath id="clip0_284_1855">
<rect width="24" height="24" fill="white" transform="translate(0 0.00488281)"/>
</clipPath>
</defs>
</svg>
