<svg width="24" height="24" viewBox="0 0 24 24" fill="none" xmlns="http://www.w3.org/2000/svg">
<g clip-path="url(#clip0_284_1909)">
<path d="M12 24.0039C18.6274 24.0039 24 18.6313 24 12.0039C24 5.37649 18.6274 0.00390625 12 0.00390625C5.37258 0.00390625 0 5.37649 0 12.0039C0 18.6313 5.37258 24.0039 12 24.0039Z" fill="#D80027"/>
<path d="M12.0009 17.7429C15.1705 17.7429 17.74 15.1734 17.74 12.0038C17.74 8.83415 15.1705 6.26465 12.0009 6.26465C8.83122 6.26465 6.26172 8.83415 6.26172 12.0038C6.26172 15.1734 8.83122 17.7429 12.0009 17.7429Z" fill="#F0F0F0"/>
<path d="M12.707 9.80957L13.6915 11.1664L15.2861 10.6493L14.3 12.005L15.2844 13.3617L13.6904 12.8427L12.7043 14.1983L12.7053 12.522L11.1113 12.003L12.7059 11.486L12.707 9.80957Z" fill="#D80027"/>
<path d="M13.3044 15.3953C11.4315 15.3953 9.91309 13.877 9.91309 12.004C9.91309 10.1311 11.4315 8.6127 13.3044 8.6127C13.8884 8.6127 14.4379 8.76036 14.9176 9.02033C14.165 8.28434 13.1359 7.83008 12.0001 7.83008C9.69494 7.83008 7.82617 9.6988 7.82617 12.004C7.82617 14.3091 9.69494 16.1779 12.0001 16.1779C13.1359 16.1779 14.1651 15.7236 14.9176 14.9876C14.4379 15.2477 13.8884 15.3953 13.3044 15.3953Z" fill="#D80027"/>
</g>
<defs>
<clipPath id="clip0_284_1909">
<rect width="24" height="24" fill="white" transform="translate(0 0.00390625)"/>
</clipPath>
</defs>
</svg>
