<svg width="24" height="24" viewBox="0 0 24 24" fill="none" xmlns="http://www.w3.org/2000/svg">
<g clip-path="url(#clip0_284_1903)">
<path d="M6.49714 1.33643C5.42286 1.89091 4.41444 2.61771 3.51387 3.51827C2.61327 4.41888 1.88647 5.4273 1.33203 6.50158L9.04798 14.9554L17.5018 22.6714C18.5762 22.1169 19.5846 21.3901 20.4852 20.4896C21.3858 19.589 22.1125 18.5806 22.667 17.5063L14.951 9.05238L6.49714 1.33643Z" fill="#F0F0F0"/>
<path d="M20.4849 20.4898C20.9883 19.9864 21.4372 19.4493 21.8325 18.8859L5.11755 2.1709C4.55416 2.5661 4.01702 3.01507 3.51363 3.51846C3.01023 4.02185 2.56127 4.55899 2.16602 5.12243L18.8809 21.8373C19.4443 21.4421 19.9815 20.9932 20.4849 20.4898Z" fill="black"/>
<path d="M3.51431 20.49C7.30026 24.2759 12.9861 25.0027 17.5023 22.6718L1.33251 6.50195C-0.998347 11.0182 -0.271457 16.704 3.51431 20.49V20.49Z" fill="#D80027"/>
<path d="M20.486 3.51827C16.7001 -0.267631 11.0143 -0.994381 6.49805 1.33638L22.6678 17.5063C24.9987 12.9901 24.272 7.30418 20.486 3.51827V3.51827Z" fill="#D80027"/>
</g>
<defs>
<clipPath id="clip0_284_1903">
<rect width="24" height="24" fill="white" transform="translate(0 0.00390625)"/>
</clipPath>
</defs>
</svg>
