<svg width="24" height="24" viewBox="0 0 24 24" fill="none" xmlns="http://www.w3.org/2000/svg">
<g clip-path="url(#clip0_284_1717)">
<path d="M12 24.002C18.6274 24.002 24 18.6294 24 12.002C24 5.37454 18.6274 0.00195312 12 0.00195312C5.37258 0.00195312 0 5.37454 0 12.002C0 18.6294 5.37258 24.002 12 24.002Z" fill="#F0F0F0"/>
<path d="M3.51471 20.4872C-1.17157 15.8009 -1.17157 8.20293 3.51471 3.5166C3.51438 3.51712 10.4348 12.0019 10.4348 12.0019L3.51471 20.4872Z" fill="black"/>
<path d="M10.4341 12.0018L1.59089 6.02588C1.31672 6.50246 1.07494 6.99989 0.867188 7.51477L5.34417 12.0019L0.867328 16.4892C1.07489 17.0037 1.31644 17.5008 1.59042 17.9771L10.4341 12.0018Z" fill="#FFDA44"/>
<path d="M23.8991 10.4365H10.4352L3.51531 3.5166C2.76962 4.26229 2.12177 5.10562 1.59227 6.02582L7.55659 12.0017L1.5918 17.9769C2.1213 18.8973 2.76944 19.7409 3.51531 20.4868L10.4352 13.5669H23.8991C23.9658 13.0546 24.0007 12.5322 24.0007 12.0017C24.0007 11.4712 23.9658 10.9489 23.8991 10.4365V10.4365Z" fill="#6DA544"/>
<path d="M4.69336 21.5211C6.71691 23.0765 9.24989 24.0019 11.9994 24.0019C17.5437 24.0019 22.209 20.2415 23.586 15.1323H11.0822L4.69336 21.5211Z" fill="#0052B4"/>
<path d="M23.586 8.8715C22.209 3.76231 17.5437 0.00195312 11.9994 0.00195312C9.24989 0.00195312 6.71691 0.927313 4.69336 2.48272L11.0821 8.8715H23.586Z" fill="#D80027"/>
</g>
<defs>
<clipPath id="clip0_284_1717">
<rect width="24" height="24" fill="white" transform="translate(0 0.00195312)"/>
</clipPath>
</defs>
</svg>